<svg width="816" height="673" viewBox="0 0 816 673" fill="none" xmlns="http://www.w3.org/2000/svg">
<g id="Elasticsearch, High availability architecture">
<g id="Infrastructure">
<path d="M8 0.5H808C812.142 0.5 815.5 3.85786 815.5 8V665C815.5 669.142 812.142 672.5 808 672.5H8C3.85787 672.5 0.5 669.142 0.5 665V8C0.5 3.85786 3.85786 0.5 8 0.5Z" fill="white"/>
<path d="M8 0.5H808C812.142 0.5 815.5 3.85786 815.5 8V665C815.5 669.142 812.142 672.5 808 672.5H8C3.85787 672.5 0.5 669.142 0.5 665V8C0.5 3.85786 3.85786 0.5 8 0.5Z" stroke="#8D8D8D"/>
<path id="Background white" d="M1 8C1 4.134 4.13401 1 8 1H808C811.866 1 815 4.13401 815 8V665C815 668.866 811.866 672 808 672H8.00001C4.13402 672 1 668.866 1 665V8Z" fill="white"/>
<g id="Content" clip-path="url(#clip0_473_3212)">
<g id="Label + Text">
<path id="Label" d="M61.18 29H56.742V27.516H58.03V20.712H56.742V19.228H61.18V20.712H59.878V27.516H61.18V29ZM63.2279 29V19.228H67.7499C69.3599 19.228 70.3399 20.222 70.3399 21.734C70.3399 23.218 69.4859 23.778 68.5899 23.834V23.918C69.4439 23.932 70.7039 24.534 70.7039 26.2C70.7039 27.768 69.6259 29 68.1839 29H63.2279ZM65.0759 24.814V27.432H67.6519C68.3519 27.432 68.7719 27.054 68.7719 26.368V25.892C68.7719 25.206 68.3519 24.814 67.6519 24.814H65.0759ZM65.0759 20.796V23.302H67.3579C68.0299 23.302 68.4219 22.91 68.4219 22.266V21.832C68.4219 21.174 68.0299 20.796 67.3579 20.796H65.0759ZM72.6711 29V19.228H74.7571L77.2631 24.002H77.3191L79.7971 19.228H81.7991V29H80.0491V21.986H79.9931L79.2371 23.54L77.2351 27.236L75.2331 23.54L74.4771 21.986H74.4211V29H72.6711ZM91.5234 29.168C88.9474 29.168 87.3094 27.474 87.3094 24.184C87.3094 20.894 88.9474 19.06 91.5234 19.06C93.2734 19.06 94.4074 19.802 95.0934 21.314L93.5114 22.154C93.2314 21.286 92.6154 20.698 91.5234 20.698C90.1514 20.698 89.2694 21.692 89.2694 23.358V24.898C89.2694 26.578 90.1514 27.53 91.5234 27.53C92.6294 27.53 93.3154 26.858 93.6374 25.976L95.1354 26.858C94.4354 28.314 93.2734 29.168 91.5234 29.168ZM99.5178 29H98.5518C97.3338 29 96.7598 28.356 96.7598 27.236V18.64H98.5518V27.572H99.5178V29ZM103.933 29.168C101.847 29.168 100.545 27.684 100.545 25.332C100.545 22.994 101.847 21.524 103.933 21.524C106.033 21.524 107.335 22.994 107.335 25.332C107.335 27.684 106.033 29.168 103.933 29.168ZM103.933 27.726C104.871 27.726 105.459 27.124 105.459 26.018V24.66C105.459 23.568 104.871 22.966 103.933 22.966C103.009 22.966 102.421 23.568 102.421 24.66V26.018C102.421 27.124 103.009 27.726 103.933 27.726ZM113.452 29V27.782H113.382C113.13 28.51 112.542 29.168 111.338 29.168C109.84 29.168 109 28.132 109 26.312V21.692H110.792V26.13C110.792 27.138 111.17 27.684 112.024 27.684C112.738 27.684 113.452 27.306 113.452 26.522V21.692H115.244V29H113.452ZM122.01 29V27.782H121.94C121.674 28.608 120.89 29.168 119.924 29.168C118.09 29.168 117.068 27.782 117.068 25.332C117.068 22.896 118.09 21.524 119.924 21.524C120.89 21.524 121.688 22.056 121.94 22.896H122.01V18.64H123.802V29H122.01ZM120.498 27.684C121.352 27.684 122.01 27.25 122.01 26.494V24.17C122.01 23.456 121.352 22.994 120.498 22.994C119.574 22.994 118.944 23.68 118.944 24.716V25.976C118.944 27.012 119.574 27.684 120.498 27.684Z" fill="black"/>
</g>
<g id="Icon">
<g id="Cloud">
<rect width="24" height="24" transform="translate(16 12)" fill="white" fill-opacity="0.01" style="mix-blend-mode:multiply"/>
<path id="Vector" d="M28 17.25C28.3803 17.2499 28.7597 17.2876 29.1325 17.3625C30.3107 17.5882 31.3943 18.1618 32.2432 19.0094C33.0921 19.857 33.6675 20.9396 33.895 22.1175L34.09 23.13L35.1025 23.31C36.1252 23.4859 37.044 24.0407 37.6757 24.8639C38.3075 25.6871 38.6058 26.7181 38.5112 27.7515C38.4165 28.7848 37.9359 29.7446 37.1652 30.4393C36.3944 31.134 35.3901 31.5128 34.3525 31.5H21.625C20.5874 31.5128 19.5831 31.134 18.8124 30.4393C18.0416 29.7446 17.561 28.7848 17.4664 27.7515C17.3718 26.7181 17.6701 25.6871 18.3018 24.8639C18.9336 24.0407 19.8524 23.4859 20.875 23.31L21.88 23.13L22.075 22.1175C22.3393 20.7422 23.0764 19.5027 24.1585 18.6138C25.2406 17.7248 26.5996 17.2423 28 17.25ZM28 15.75C26.2545 15.7486 24.5631 16.356 23.2173 17.4677C21.8716 18.5793 20.9557 20.1256 20.6275 21.84C19.2463 22.0901 18.0084 22.8476 17.1571 23.9637C16.3058 25.0798 15.9026 26.4738 16.0267 27.8721C16.1507 29.2703 16.793 30.5716 17.8275 31.5204C18.862 32.4692 20.2138 32.997 21.6175 33H34.3675C35.7712 32.997 37.1231 32.4692 38.1576 31.5204C39.192 30.5716 39.8344 29.2703 39.9584 27.8721C40.0824 26.4738 39.6792 25.0798 38.8279 23.9637C37.9766 22.8476 36.7388 22.0901 35.3575 21.84C35.075 20.3654 34.3565 19.0095 33.2948 17.9478C32.2331 16.8861 30.8772 16.1675 29.4025 15.885C28.9401 15.7972 28.4707 15.7521 28 15.75Z" fill="black"/>
</g>
</g>
</g>
</g>
<g id="Location">
<rect x="48.5" y="575.5" width="719" height="49" fill="white"/>
<rect x="48.5" y="575.5" width="719" height="49" stroke="#0F62FE"/>
<rect id="Background white_2" x="49" y="576" width="718" height="48" fill="white"/>
<rect id="Background color" x="49" y="576" width="718" height="48" fill="#EDF5FF"/>
<g id="Content_2" clip-path="url(#clip1_473_3212)">
<g id="Label + Text_2">
<path id="Label_2" d="M294.045 605.168C291.469 605.168 289.831 603.474 289.831 600.184C289.831 596.894 291.469 595.06 294.045 595.06C295.795 595.06 296.929 595.802 297.615 597.314L296.033 598.154C295.753 597.286 295.137 596.698 294.045 596.698C292.673 596.698 291.791 597.692 291.791 599.358V600.898C291.791 602.578 292.673 603.53 294.045 603.53C295.151 603.53 295.837 602.858 296.159 601.976L297.657 602.858C296.957 604.314 295.795 605.168 294.045 605.168ZM301.074 605H299.282V597.692H301.074V599.204H301.144C301.326 598.434 301.914 597.692 303.076 597.692H303.468V599.386H302.908C301.704 599.386 301.074 599.722 301.074 600.52V605ZM307.767 605.168C305.681 605.168 304.379 603.684 304.379 601.332C304.379 598.994 305.681 597.524 307.767 597.524C309.867 597.524 311.169 598.994 311.169 601.332C311.169 603.684 309.867 605.168 307.767 605.168ZM307.767 603.726C308.705 603.726 309.293 603.124 309.293 602.018V600.66C309.293 599.568 308.705 598.966 307.767 598.966C306.843 598.966 306.255 599.568 306.255 600.66V602.018C306.255 603.124 306.843 603.726 307.767 603.726ZM315.312 605.168C313.926 605.168 313.016 604.664 312.288 603.824L313.38 602.76C313.912 603.376 314.556 603.754 315.382 603.754C316.236 603.754 316.6 603.432 316.6 602.914C316.6 602.494 316.348 602.228 315.704 602.144L314.976 602.046C313.408 601.85 312.54 601.164 312.54 599.834C312.54 598.42 313.646 597.524 315.312 597.524C316.74 597.524 317.468 597.944 318.168 598.672L317.118 599.722C316.698 599.274 316.082 598.938 315.368 598.938C314.598 598.938 314.262 599.246 314.262 599.694C314.262 600.184 314.528 600.408 315.214 600.52L315.956 600.618C317.552 600.842 318.322 601.556 318.322 602.774C318.322 604.188 317.132 605.168 315.312 605.168ZM322.363 605.168C320.977 605.168 320.067 604.664 319.339 603.824L320.431 602.76C320.963 603.376 321.607 603.754 322.433 603.754C323.287 603.754 323.651 603.432 323.651 602.914C323.651 602.494 323.399 602.228 322.755 602.144L322.027 602.046C320.459 601.85 319.591 601.164 319.591 599.834C319.591 598.42 320.697 597.524 322.363 597.524C323.791 597.524 324.519 597.944 325.219 598.672L324.169 599.722C323.749 599.274 323.133 598.938 322.419 598.938C321.649 598.938 321.313 599.246 321.313 599.694C321.313 600.184 321.579 600.408 322.265 600.52L323.007 600.618C324.603 600.842 325.373 601.556 325.373 602.774C325.373 604.188 324.183 605.168 322.363 605.168ZM332.376 605H330.584V597.692H332.376V599.204H332.446C332.628 598.434 333.216 597.692 334.378 597.692H334.77V599.386H334.21C333.006 599.386 332.376 599.722 332.376 600.52V605ZM339.125 605.168C336.969 605.168 335.681 603.67 335.681 601.332C335.681 599.022 336.927 597.524 339.069 597.524C341.351 597.524 342.401 599.204 342.401 601.206V601.794H337.543V601.976C337.543 603.026 338.145 603.74 339.321 603.74C340.203 603.74 340.735 603.32 341.183 602.746L342.149 603.824C341.547 604.65 340.483 605.168 339.125 605.168ZM339.097 598.868C338.159 598.868 337.543 599.568 337.543 600.576V600.688H340.539V600.562C340.539 599.554 340.021 598.868 339.097 598.868ZM350.732 605.616C350.732 607.142 349.696 607.968 346.896 607.968C344.432 607.968 343.494 607.324 343.494 606.246C343.494 605.434 343.984 604.972 344.796 604.846V604.692C344.194 604.538 343.858 604.062 343.858 603.474C343.858 602.718 344.502 602.34 345.202 602.186V602.13C344.32 601.724 343.872 600.968 343.872 600.002C343.872 598.518 344.922 597.524 346.896 597.524C347.344 597.524 347.806 597.58 348.17 597.706V597.468C348.17 596.754 348.534 596.404 349.206 596.404H350.34V597.776H348.786V597.972C349.542 598.392 349.92 599.106 349.92 600.002C349.92 601.472 348.884 602.452 346.896 602.452C346.476 602.452 346.098 602.41 345.776 602.326C345.496 602.452 345.258 602.662 345.258 602.984C345.258 603.348 345.566 603.53 346.21 603.53H348.17C349.962 603.53 350.732 604.3 350.732 605.616ZM349.052 605.826C349.052 605.364 348.716 605.084 347.806 605.084H345.314C345.048 605.28 344.936 605.546 344.936 605.84C344.936 606.4 345.356 606.736 346.476 606.736H347.372C348.534 606.736 349.052 606.442 349.052 605.826ZM346.896 601.234C347.75 601.234 348.212 600.842 348.212 600.114V599.876C348.212 599.134 347.75 598.756 346.896 598.756C346.042 598.756 345.58 599.134 345.58 599.876V600.114C345.58 600.842 346.042 601.234 346.896 601.234ZM352.823 596.628C352.081 596.628 351.773 596.25 351.773 595.732V595.452C351.773 594.934 352.081 594.556 352.823 594.556C353.551 594.556 353.873 594.934 353.873 595.452V595.732C353.873 596.25 353.551 596.628 352.823 596.628ZM351.927 605V597.692H353.719V605H351.927ZM358.854 605.168C356.768 605.168 355.466 603.684 355.466 601.332C355.466 598.994 356.768 597.524 358.854 597.524C360.954 597.524 362.256 598.994 362.256 601.332C362.256 603.684 360.954 605.168 358.854 605.168ZM358.854 603.726C359.792 603.726 360.38 603.124 360.38 602.018V600.66C360.38 599.568 359.792 598.966 358.854 598.966C357.93 598.966 357.342 599.568 357.342 600.66V602.018C357.342 603.124 357.93 603.726 358.854 603.726ZM365.797 605H364.005V597.692H365.797V598.91H365.867C366.161 598.126 366.777 597.524 367.911 597.524C369.409 597.524 370.249 598.56 370.249 600.38V605H368.457V600.562C368.457 599.526 368.107 598.994 367.253 598.994C366.511 598.994 365.797 599.386 365.797 600.17V605ZM374.201 605.168C372.717 605.168 371.877 604.314 371.877 603.012C371.877 601.514 373.011 600.772 374.999 600.772H376.245V600.24C376.245 599.428 375.839 598.952 374.887 598.952C374.047 598.952 373.571 599.372 373.221 599.876L372.157 598.924C372.689 598.084 373.543 597.524 375.013 597.524C376.987 597.524 378.037 598.462 378.037 600.128V603.572H378.765V605H377.771C377.001 605 376.525 604.496 376.413 603.74H376.329C376.091 604.678 375.293 605.168 374.201 605.168ZM374.803 603.866C375.601 603.866 376.245 603.502 376.245 602.816V601.85H375.097C374.159 601.85 373.697 602.172 373.697 602.746V602.984C373.697 603.572 374.103 603.866 374.803 603.866ZM383.133 605H382.167C380.949 605 380.375 604.356 380.375 603.236V594.64H382.167V603.572H383.133V605ZM392.025 605.168C389.449 605.168 387.811 603.474 387.811 600.184C387.811 596.894 389.449 595.06 392.025 595.06C393.775 595.06 394.909 595.802 395.595 597.314L394.013 598.154C393.733 597.286 393.117 596.698 392.025 596.698C390.653 596.698 389.771 597.692 389.771 599.358V600.898C389.771 602.578 390.653 603.53 392.025 603.53C393.131 603.53 393.817 602.858 394.139 601.976L395.637 602.858C394.937 604.314 393.775 605.168 392.025 605.168ZM400.02 605H399.054C397.836 605 397.262 604.356 397.262 603.236V594.64H399.054V603.572H400.02V605ZM404.435 605.168C402.349 605.168 401.047 603.684 401.047 601.332C401.047 598.994 402.349 597.524 404.435 597.524C406.535 597.524 407.837 598.994 407.837 601.332C407.837 603.684 406.535 605.168 404.435 605.168ZM404.435 603.726C405.373 603.726 405.961 603.124 405.961 602.018V600.66C405.961 599.568 405.373 598.966 404.435 598.966C403.511 598.966 402.923 599.568 402.923 600.66V602.018C402.923 603.124 403.511 603.726 404.435 603.726ZM413.954 605V603.782H413.884C413.632 604.51 413.044 605.168 411.84 605.168C410.342 605.168 409.502 604.132 409.502 602.312V597.692H411.294V602.13C411.294 603.138 411.672 603.684 412.526 603.684C413.24 603.684 413.954 603.306 413.954 602.522V597.692H415.746V605H413.954ZM422.512 605V603.782H422.442C422.176 604.608 421.392 605.168 420.426 605.168C418.592 605.168 417.57 603.782 417.57 601.332C417.57 598.896 418.592 597.524 420.426 597.524C421.392 597.524 422.19 598.056 422.442 598.896H422.512V594.64H424.304V605H422.512ZM421 603.684C421.854 603.684 422.512 603.25 422.512 602.494V600.17C422.512 599.456 421.854 598.994 421 598.994C420.076 598.994 419.446 599.68 419.446 600.716V601.976C419.446 603.012 420.076 603.684 421 603.684ZM433.947 605.168C431.385 605.168 429.691 603.418 429.691 600.114C429.691 596.81 431.385 595.06 433.947 595.06C436.523 595.06 438.203 596.81 438.203 600.114C438.203 603.418 436.523 605.168 433.947 605.168ZM433.947 603.53C435.347 603.53 436.243 602.536 436.243 600.87V599.358C436.243 597.692 435.347 596.698 433.947 596.698C432.547 596.698 431.651 597.692 431.651 599.358V600.87C431.651 602.536 432.547 603.53 433.947 603.53ZM440.126 605V594.64H441.918V598.896H441.974C442.24 598.056 443.024 597.524 443.99 597.524C445.838 597.524 446.86 598.896 446.86 601.332C446.86 603.782 445.838 605.168 443.99 605.168C443.024 605.168 442.254 604.608 441.974 603.782H441.918V605H440.126ZM443.416 603.684C444.34 603.684 444.984 603.012 444.984 601.976V600.716C444.984 599.68 444.34 598.994 443.416 598.994C442.562 598.994 441.918 599.456 441.918 600.17V602.494C441.918 603.25 442.562 603.684 443.416 603.684ZM448.681 606.372V597.692H450.473V605.882C450.473 607.1 449.885 607.8 448.541 607.8H447.561V606.372H448.681ZM449.577 596.628C448.835 596.628 448.527 596.25 448.527 595.732V595.452C448.527 594.934 448.835 594.556 449.577 594.556C450.305 594.556 450.627 594.934 450.627 595.452V595.732C450.627 596.25 450.305 596.628 449.577 596.628ZM455.664 605.168C453.508 605.168 452.22 603.67 452.22 601.332C452.22 599.022 453.466 597.524 455.608 597.524C457.89 597.524 458.94 599.204 458.94 601.206V601.794H454.082V601.976C454.082 603.026 454.684 603.74 455.86 603.74C456.742 603.74 457.274 603.32 457.722 602.746L458.688 603.824C458.086 604.65 457.022 605.168 455.664 605.168ZM455.636 598.868C454.698 598.868 454.082 599.568 454.082 600.576V600.688H457.078V600.562C457.078 599.554 456.56 598.868 455.636 598.868ZM463.56 605.168C461.404 605.168 460.186 603.684 460.186 601.332C460.186 598.994 461.404 597.524 463.56 597.524C465.03 597.524 465.996 598.224 466.43 599.372L464.96 600.03C464.792 599.414 464.33 598.966 463.56 598.966C462.566 598.966 462.062 599.666 462.062 600.688V602.018C462.062 603.04 462.566 603.726 463.56 603.726C464.414 603.726 464.834 603.236 465.1 602.578L466.472 603.236C465.996 604.524 464.974 605.168 463.56 605.168ZM470.296 605C469.064 605 468.406 604.328 468.406 603.138V599.12H467.328V597.692H467.888C468.42 597.692 468.588 597.44 468.588 596.936V595.69H470.198V597.692H471.696V599.12H470.198V603.572H471.584V605H470.296ZM480.029 605.168C478.363 605.168 477.215 604.51 476.389 603.544L477.635 602.34C478.307 603.124 479.133 603.544 480.141 603.544C481.275 603.544 481.863 602.998 481.863 602.172C481.863 601.514 481.555 601.108 480.533 600.926L479.609 600.786C477.635 600.478 476.683 599.54 476.683 597.944C476.683 596.194 478.041 595.06 480.225 595.06C481.695 595.06 482.787 595.564 483.571 596.502L482.311 597.692C481.835 597.09 481.163 596.684 480.127 596.684C479.077 596.684 478.531 597.104 478.531 597.832C478.531 598.574 478.951 598.882 479.889 599.05L480.799 599.218C482.773 599.568 483.697 600.45 483.697 602.06C483.697 603.908 482.367 605.168 480.029 605.168ZM487.825 605C486.593 605 485.935 604.328 485.935 603.138V599.12H484.857V597.692H485.417C485.949 597.692 486.117 597.44 486.117 596.936V595.69H487.727V597.692H489.225V599.12H487.727V603.572H489.113V605H487.825ZM493.783 605.168C491.697 605.168 490.395 603.684 490.395 601.332C490.395 598.994 491.697 597.524 493.783 597.524C495.883 597.524 497.185 598.994 497.185 601.332C497.185 603.684 495.883 605.168 493.783 605.168ZM493.783 603.726C494.721 603.726 495.309 603.124 495.309 602.018V600.66C495.309 599.568 494.721 598.966 493.783 598.966C492.859 598.966 492.271 599.568 492.271 600.66V602.018C492.271 603.124 492.859 603.726 493.783 603.726ZM500.725 605H498.933V597.692H500.725V599.204H500.795C500.977 598.434 501.565 597.692 502.727 597.692H503.119V599.386H502.559C501.355 599.386 500.725 599.722 500.725 600.52V605ZM506.245 605.168C504.761 605.168 503.921 604.314 503.921 603.012C503.921 601.514 505.055 600.772 507.043 600.772H508.289V600.24C508.289 599.428 507.883 598.952 506.931 598.952C506.091 598.952 505.615 599.372 505.265 599.876L504.201 598.924C504.733 598.084 505.587 597.524 507.057 597.524C509.031 597.524 510.081 598.462 510.081 600.128V603.572H510.809V605H509.815C509.045 605 508.569 604.496 508.457 603.74H508.373C508.135 604.678 507.337 605.168 506.245 605.168ZM506.847 603.866C507.645 603.866 508.289 603.502 508.289 602.816V601.85H507.141C506.203 601.85 505.741 602.172 505.741 602.746V602.984C505.741 603.572 506.147 603.866 506.847 603.866ZM519.013 605.616C519.013 607.142 517.977 607.968 515.177 607.968C512.713 607.968 511.775 607.324 511.775 606.246C511.775 605.434 512.265 604.972 513.077 604.846V604.692C512.475 604.538 512.139 604.062 512.139 603.474C512.139 602.718 512.783 602.34 513.483 602.186V602.13C512.601 601.724 512.153 600.968 512.153 600.002C512.153 598.518 513.203 597.524 515.177 597.524C515.625 597.524 516.087 597.58 516.451 597.706V597.468C516.451 596.754 516.815 596.404 517.487 596.404H518.621V597.776H517.067V597.972C517.823 598.392 518.201 599.106 518.201 600.002C518.201 601.472 517.165 602.452 515.177 602.452C514.757 602.452 514.379 602.41 514.057 602.326C513.777 602.452 513.539 602.662 513.539 602.984C513.539 603.348 513.847 603.53 514.491 603.53H516.451C518.243 603.53 519.013 604.3 519.013 605.616ZM517.333 605.826C517.333 605.364 516.997 605.084 516.087 605.084H513.595C513.329 605.28 513.217 605.546 513.217 605.84C513.217 606.4 513.637 606.736 514.757 606.736H515.653C516.815 606.736 517.333 606.442 517.333 605.826ZM515.177 601.234C516.031 601.234 516.493 600.842 516.493 600.114V599.876C516.493 599.134 516.031 598.756 515.177 598.756C514.323 598.756 513.861 599.134 513.861 599.876V600.114C513.861 600.842 514.323 601.234 515.177 601.234ZM523.08 605.168C520.924 605.168 519.636 603.67 519.636 601.332C519.636 599.022 520.882 597.524 523.024 597.524C525.306 597.524 526.356 599.204 526.356 601.206V601.794H521.498V601.976C521.498 603.026 522.1 603.74 523.276 603.74C524.158 603.74 524.69 603.32 525.138 602.746L526.104 603.824C525.502 604.65 524.438 605.168 523.08 605.168ZM523.052 598.868C522.114 598.868 521.498 599.568 521.498 600.576V600.688H524.494V600.562C524.494 599.554 523.976 598.868 523.052 598.868Z" fill="black"/>
</g>
</g>
</g>
<g id="Control plane">
<rect x="309.5" y="48.5" width="239" height="47" fill="white"/>
<rect x="309.5" y="48.5" width="239" height="47" stroke="#0F62FE"/>
<rect id="Background white_3" x="310" y="49" width="238" height="46" fill="white"/>
<rect id="Background color_2" x="310" y="49" width="238" height="46" fill="#EDF5FF"/>
<g id="Content_3" clip-path="url(#clip2_473_3212)">
<g id="Label + Text_3">
<path id="Label_3" d="M375.111 77H370.673V75.516H371.961V68.712H370.673V67.228H375.111V68.712H373.809V75.516H375.111V77ZM378.839 77H377.047V69.692H378.839V70.91H378.909C379.203 70.126 379.819 69.524 380.953 69.524C382.451 69.524 383.291 70.56 383.291 72.38V77H381.499V72.562C381.499 71.526 381.149 70.994 380.295 70.994C379.553 70.994 378.839 71.386 378.839 72.17V77ZM392.031 77.616C392.031 79.142 390.995 79.968 388.195 79.968C385.731 79.968 384.793 79.324 384.793 78.246C384.793 77.434 385.283 76.972 386.095 76.846V76.692C385.493 76.538 385.157 76.062 385.157 75.474C385.157 74.718 385.801 74.34 386.501 74.186V74.13C385.619 73.724 385.171 72.968 385.171 72.002C385.171 70.518 386.221 69.524 388.195 69.524C388.643 69.524 389.105 69.58 389.469 69.706V69.468C389.469 68.754 389.833 68.404 390.505 68.404H391.639V69.776H390.085V69.972C390.841 70.392 391.219 71.106 391.219 72.002C391.219 73.472 390.183 74.452 388.195 74.452C387.775 74.452 387.397 74.41 387.075 74.326C386.795 74.452 386.557 74.662 386.557 74.984C386.557 75.348 386.865 75.53 387.509 75.53H389.469C391.261 75.53 392.031 76.3 392.031 77.616ZM390.351 77.826C390.351 77.364 390.015 77.084 389.105 77.084H386.613C386.347 77.28 386.235 77.546 386.235 77.84C386.235 78.4 386.655 78.736 387.775 78.736H388.671C389.833 78.736 390.351 78.442 390.351 77.826ZM388.195 73.234C389.049 73.234 389.511 72.842 389.511 72.114V71.876C389.511 71.134 389.049 70.756 388.195 70.756C387.341 70.756 386.879 71.134 386.879 71.876V72.114C386.879 72.842 387.341 73.234 388.195 73.234ZM395.018 77H393.226V69.692H395.018V71.204H395.088C395.27 70.434 395.858 69.692 397.02 69.692H397.412V71.386H396.852C395.648 71.386 395.018 71.722 395.018 72.52V77ZM401.768 77.168C399.612 77.168 398.324 75.67 398.324 73.332C398.324 71.022 399.57 69.524 401.712 69.524C403.994 69.524 405.044 71.204 405.044 73.206V73.794H400.186V73.976C400.186 75.026 400.788 75.74 401.964 75.74C402.846 75.74 403.378 75.32 403.826 74.746L404.792 75.824C404.19 76.65 403.126 77.168 401.768 77.168ZM401.74 70.868C400.802 70.868 400.186 71.568 400.186 72.576V72.688H403.182V72.562C403.182 71.554 402.664 70.868 401.74 70.868ZM409.175 77.168C407.789 77.168 406.879 76.664 406.151 75.824L407.243 74.76C407.775 75.376 408.419 75.754 409.245 75.754C410.099 75.754 410.463 75.432 410.463 74.914C410.463 74.494 410.211 74.228 409.567 74.144L408.839 74.046C407.271 73.85 406.403 73.164 406.403 71.834C406.403 70.42 407.509 69.524 409.175 69.524C410.603 69.524 411.331 69.944 412.031 70.672L410.981 71.722C410.561 71.274 409.945 70.938 409.231 70.938C408.461 70.938 408.125 71.246 408.125 71.694C408.125 72.184 408.391 72.408 409.077 72.52L409.819 72.618C411.415 72.842 412.185 73.556 412.185 74.774C412.185 76.188 410.995 77.168 409.175 77.168ZM416.225 77.168C414.839 77.168 413.929 76.664 413.201 75.824L414.293 74.76C414.825 75.376 415.469 75.754 416.295 75.754C417.149 75.754 417.513 75.432 417.513 74.914C417.513 74.494 417.261 74.228 416.617 74.144L415.889 74.046C414.321 73.85 413.453 73.164 413.453 71.834C413.453 70.42 414.559 69.524 416.225 69.524C417.653 69.524 418.381 69.944 419.081 70.672L418.031 71.722C417.611 71.274 416.995 70.938 416.281 70.938C415.511 70.938 415.175 71.246 415.175 71.694C415.175 72.184 415.441 72.408 416.127 72.52L416.869 72.618C418.465 72.842 419.235 73.556 419.235 74.774C419.235 76.188 418.045 77.168 416.225 77.168ZM427.33 77.168C425.174 77.168 423.956 75.684 423.956 73.332C423.956 70.994 425.174 69.524 427.33 69.524C428.8 69.524 429.766 70.224 430.2 71.372L428.73 72.03C428.562 71.414 428.1 70.966 427.33 70.966C426.336 70.966 425.832 71.666 425.832 72.688V74.018C425.832 75.04 426.336 75.726 427.33 75.726C428.184 75.726 428.604 75.236 428.87 74.578L430.242 75.236C429.766 76.524 428.744 77.168 427.33 77.168ZM434.614 77.168C432.528 77.168 431.226 75.684 431.226 73.332C431.226 70.994 432.528 69.524 434.614 69.524C436.714 69.524 438.016 70.994 438.016 73.332C438.016 75.684 436.714 77.168 434.614 77.168ZM434.614 75.726C435.552 75.726 436.14 75.124 436.14 74.018V72.66C436.14 71.568 435.552 70.966 434.614 70.966C433.69 70.966 433.102 71.568 433.102 72.66V74.018C433.102 75.124 433.69 75.726 434.614 75.726ZM441.556 77H439.764V69.692H441.556V70.91H441.626C441.92 70.126 442.536 69.524 443.67 69.524C445.168 69.524 446.008 70.56 446.008 72.38V77H444.216V72.562C444.216 71.526 443.866 70.994 443.012 70.994C442.27 70.994 441.556 71.386 441.556 72.17V77ZM450.437 77C449.205 77 448.547 76.328 448.547 75.138V71.12H447.469V69.692H448.029C448.561 69.692 448.729 69.44 448.729 68.936V67.69H450.339V69.692H451.837V71.12H450.339V75.572H451.725V77H450.437ZM455.343 77H453.551V69.692H455.343V71.204H455.413C455.595 70.434 456.183 69.692 457.345 69.692H457.737V71.386H457.177C455.973 71.386 455.343 71.722 455.343 72.52V77ZM462.037 77.168C459.951 77.168 458.649 75.684 458.649 73.332C458.649 70.994 459.951 69.524 462.037 69.524C464.137 69.524 465.439 70.994 465.439 73.332C465.439 75.684 464.137 77.168 462.037 77.168ZM462.037 75.726C462.975 75.726 463.563 75.124 463.563 74.018V72.66C463.563 71.568 462.975 70.966 462.037 70.966C461.113 70.966 460.525 71.568 460.525 72.66V74.018C460.525 75.124 461.113 75.726 462.037 75.726ZM469.945 77H468.979C467.761 77 467.187 76.356 467.187 75.236V66.64H468.979V75.572H469.945V77ZM474.125 77H473.159C471.941 77 471.367 76.356 471.367 75.236V66.64H473.159V75.572H474.125V77ZM478.596 77.168C476.44 77.168 475.152 75.67 475.152 73.332C475.152 71.022 476.398 69.524 478.54 69.524C480.822 69.524 481.872 71.204 481.872 73.206V73.794H477.014V73.976C477.014 75.026 477.616 75.74 478.792 75.74C479.674 75.74 480.206 75.32 480.654 74.746L481.62 75.824C481.018 76.65 479.954 77.168 478.596 77.168ZM478.568 70.868C477.63 70.868 477.014 71.568 477.014 72.576V72.688H480.01V72.562C480.01 71.554 479.492 70.868 478.568 70.868ZM485.401 77H483.609V69.692H485.401V71.204H485.471C485.653 70.434 486.241 69.692 487.403 69.692H487.795V71.386H487.235C486.031 71.386 485.401 71.722 485.401 72.52V77Z" fill="black"/>
</g>
</g>
</g>
<g id="Frame 7">
<g id="Location_2">
<rect x="47.5" y="144.5" width="720" height="383" fill="white" fill-opacity="0.01" style="mix-blend-mode:multiply"/>
<rect x="47.5" y="144.5" width="720" height="383" stroke="#0F62FE"/>
<rect id="Background white_4" x="48" y="145" width="719" height="382" fill="white"/>
<rect id="Background color_3" x="48" y="145" width="719" height="382" fill="#EDF5FF"/>
<g id="Content_4" clip-path="url(#clip3_473_3212)">
<g id="Label + Text_4">
<path id="Label_4" d="M68.18 173H63.742V171.516H65.03V164.712H63.742V163.228H68.18V164.712H66.878V171.516H68.18V173ZM74.0219 173.168C71.4459 173.168 69.8079 171.474 69.8079 168.184C69.8079 164.894 71.4459 163.06 74.0219 163.06C75.7719 163.06 76.9059 163.802 77.5919 165.314L76.0099 166.154C75.7299 165.286 75.1139 164.698 74.0219 164.698C72.6499 164.698 71.7679 165.692 71.7679 167.358V168.898C71.7679 170.578 72.6499 171.53 74.0219 171.53C75.1279 171.53 75.8139 170.858 76.1359 169.976L77.6339 170.858C76.9339 172.314 75.7719 173.168 74.0219 173.168ZM79.3703 173V163.228H82.9263C85.4743 163.228 87.1403 164.866 87.1403 168.114C87.1403 171.362 85.4743 173 82.9263 173H79.3703ZM81.2183 171.362H82.9263C84.2983 171.362 85.1803 170.55 85.1803 168.884V167.344C85.1803 165.678 84.2983 164.866 82.9263 164.866H81.2183V171.362ZM99.0913 173H92.6513V163.228H99.0913V164.866H94.4993V167.232H98.5593V168.87H94.4993V171.362H99.0913V173ZM103.852 173H102.886C101.668 173 101.094 172.356 101.094 171.236V162.64H102.886V171.572H103.852V173ZM107.175 173.168C105.691 173.168 104.851 172.314 104.851 171.012C104.851 169.514 105.985 168.772 107.973 168.772H109.219V168.24C109.219 167.428 108.813 166.952 107.861 166.952C107.021 166.952 106.545 167.372 106.195 167.876L105.131 166.924C105.663 166.084 106.517 165.524 107.987 165.524C109.961 165.524 111.011 166.462 111.011 168.128V171.572H111.739V173H110.745C109.975 173 109.499 172.496 109.387 171.74H109.303C109.065 172.678 108.267 173.168 107.175 173.168ZM107.777 171.866C108.575 171.866 109.219 171.502 109.219 170.816V169.85H108.071C107.133 169.85 106.671 170.172 106.671 170.746V170.984C106.671 171.572 107.077 171.866 107.777 171.866ZM115.743 173.168C114.357 173.168 113.447 172.664 112.719 171.824L113.811 170.76C114.343 171.376 114.987 171.754 115.813 171.754C116.667 171.754 117.031 171.432 117.031 170.914C117.031 170.494 116.779 170.228 116.135 170.144L115.407 170.046C113.839 169.85 112.971 169.164 112.971 167.834C112.971 166.42 114.077 165.524 115.743 165.524C117.171 165.524 117.899 165.944 118.599 166.672L117.549 167.722C117.129 167.274 116.513 166.938 115.799 166.938C115.029 166.938 114.693 167.246 114.693 167.694C114.693 168.184 114.959 168.408 115.645 168.52L116.387 168.618C117.983 168.842 118.753 169.556 118.753 170.774C118.753 172.188 117.563 173.168 115.743 173.168ZM122.668 173C121.436 173 120.778 172.328 120.778 171.138V167.12H119.7V165.692H120.26C120.792 165.692 120.96 165.44 120.96 164.936V163.69H122.57V165.692H124.068V167.12H122.57V171.572H123.956V173H122.668ZM126.679 164.628C125.937 164.628 125.629 164.25 125.629 163.732V163.452C125.629 162.934 125.937 162.556 126.679 162.556C127.407 162.556 127.729 162.934 127.729 163.452V163.732C127.729 164.25 127.407 164.628 126.679 164.628ZM125.783 173V165.692H127.575V173H125.783ZM132.696 173.168C130.54 173.168 129.322 171.684 129.322 169.332C129.322 166.994 130.54 165.524 132.696 165.524C134.166 165.524 135.132 166.224 135.566 167.372L134.096 168.03C133.928 167.414 133.466 166.966 132.696 166.966C131.702 166.966 131.198 167.666 131.198 168.688V170.018C131.198 171.04 131.702 171.726 132.696 171.726C133.55 171.726 133.97 171.236 134.236 170.578L135.608 171.236C135.132 172.524 134.11 173.168 132.696 173.168Z" fill="black"/>
</g>
<line id="Border" x1="49" y1="144" x2="49" y2="192" stroke="#0F62FE" stroke-width="4"/>
</g>
</g>
<g id="Frame 5">
<g id="Frame 4">
<g id="Location_3">
<rect width="219" height="288" transform="translate(63 192)" fill="white"/>
<rect id="Background white_5" x="63" y="192" width="219" height="288" fill="white"/>
<g id="Content_5" clip-path="url(#clip4_473_3212)">
<g id="Label + Text_5">
<path id="Label_5" d="M128.114 221H126.196L125.412 218.508H121.94L121.17 221H119.294L122.57 211.228H124.866L128.114 221ZM124.964 216.926L123.704 212.908H123.634L122.388 216.926H124.964ZM132.915 221H130.787L128.351 213.692H130.115L131.137 216.842L131.851 219.446H131.949L132.663 216.842L133.657 213.692H135.365L132.915 221ZM138.404 221.168C136.92 221.168 136.08 220.314 136.08 219.012C136.08 217.514 137.214 216.772 139.202 216.772H140.448V216.24C140.448 215.428 140.042 214.952 139.09 214.952C138.25 214.952 137.774 215.372 137.424 215.876L136.36 214.924C136.892 214.084 137.746 213.524 139.216 213.524C141.19 213.524 142.24 214.462 142.24 216.128V219.572H142.968V221H141.974C141.204 221 140.728 220.496 140.616 219.74H140.532C140.294 220.678 139.496 221.168 138.404 221.168ZM139.006 219.866C139.804 219.866 140.448 219.502 140.448 218.816V217.85H139.3C138.362 217.85 137.9 218.172 137.9 218.746V218.984C137.9 219.572 138.306 219.866 139.006 219.866ZM145.474 212.628C144.732 212.628 144.424 212.25 144.424 211.732V211.452C144.424 210.934 144.732 210.556 145.474 210.556C146.202 210.556 146.524 210.934 146.524 211.452V211.732C146.524 212.25 146.202 212.628 145.474 212.628ZM144.578 221V213.692H146.37V221H144.578ZM151.366 221H150.4C149.182 221 148.608 220.356 148.608 219.236V210.64H150.4V219.572H151.366V221ZM154.689 221.168C153.205 221.168 152.365 220.314 152.365 219.012C152.365 217.514 153.499 216.772 155.487 216.772H156.733V216.24C156.733 215.428 156.327 214.952 155.375 214.952C154.535 214.952 154.059 215.372 153.709 215.876L152.645 214.924C153.177 214.084 154.031 213.524 155.501 213.524C157.475 213.524 158.525 214.462 158.525 216.128V219.572H159.253V221H158.259C157.489 221 157.013 220.496 156.901 219.74H156.817C156.579 220.678 155.781 221.168 154.689 221.168ZM155.291 219.866C156.089 219.866 156.733 219.502 156.733 218.816V217.85H155.585C154.647 217.85 154.185 218.172 154.185 218.746V218.984C154.185 219.572 154.591 219.866 155.291 219.866ZM160.863 221V210.64H162.655V214.896H162.711C162.977 214.056 163.761 213.524 164.727 213.524C166.575 213.524 167.597 214.896 167.597 217.332C167.597 219.782 166.575 221.168 164.727 221.168C163.761 221.168 162.991 220.608 162.711 219.782H162.655V221H160.863ZM164.153 219.684C165.077 219.684 165.721 219.012 165.721 217.976V216.716C165.721 215.68 165.077 214.994 164.153 214.994C163.299 214.994 162.655 215.456 162.655 216.17V218.494C162.655 219.25 163.299 219.684 164.153 219.684ZM170.314 212.628C169.572 212.628 169.264 212.25 169.264 211.732V211.452C169.264 210.934 169.572 210.556 170.314 210.556C171.042 210.556 171.364 210.934 171.364 211.452V211.732C171.364 212.25 171.042 212.628 170.314 212.628ZM169.418 221V213.692H171.21V221H169.418ZM176.205 221H175.239C174.021 221 173.447 220.356 173.447 219.236V210.64H175.239V219.572H176.205V221ZM178.618 212.628C177.876 212.628 177.568 212.25 177.568 211.732V211.452C177.568 210.934 177.876 210.556 178.618 210.556C179.346 210.556 179.668 210.934 179.668 211.452V211.732C179.668 212.25 179.346 212.628 178.618 212.628ZM177.722 221V213.692H179.514V221H177.722ZM184.033 221C182.801 221 182.143 220.328 182.143 219.138V215.12H181.065V213.692H181.625C182.157 213.692 182.325 213.44 182.325 212.936V211.69H183.935V213.692H185.433V215.12H183.935V219.572H185.321V221H184.033ZM190.354 217.556L191.628 213.692H193.308L190.368 222.302C190.004 223.352 189.486 223.8 188.282 223.8H187.204V222.372H188.52L188.856 221.35L186.238 213.692H188.016L189.29 217.556L189.766 219.404H189.85L190.354 217.556ZM203.592 221H197.6V219.572L201.394 215.106H197.726V213.692H203.494V215.078L199.672 219.572H203.592V221ZM208.053 221.168C205.967 221.168 204.665 219.684 204.665 217.332C204.665 214.994 205.967 213.524 208.053 213.524C210.153 213.524 211.455 214.994 211.455 217.332C211.455 219.684 210.153 221.168 208.053 221.168ZM208.053 219.726C208.991 219.726 209.579 219.124 209.579 218.018V216.66C209.579 215.568 208.991 214.966 208.053 214.966C207.129 214.966 206.541 215.568 206.541 216.66V218.018C206.541 219.124 207.129 219.726 208.053 219.726ZM214.996 221H213.204V213.692H214.996V214.91H215.066C215.36 214.126 215.976 213.524 217.11 213.524C218.608 213.524 219.448 214.56 219.448 216.38V221H217.656V216.562C217.656 215.526 217.306 214.994 216.452 214.994C215.71 214.994 214.996 215.386 214.996 216.17V221ZM224.548 221.168C222.392 221.168 221.104 219.67 221.104 217.332C221.104 215.022 222.35 213.524 224.492 213.524C226.774 213.524 227.824 215.204 227.824 217.206V217.794H222.966V217.976C222.966 219.026 223.568 219.74 224.744 219.74C225.626 219.74 226.158 219.32 226.606 218.746L227.572 219.824C226.97 220.65 225.906 221.168 224.548 221.168ZM224.52 214.868C223.582 214.868 222.966 215.568 222.966 216.576V216.688H225.962V216.562C225.962 215.554 225.444 214.868 224.52 214.868ZM240.001 221H233.267V219.502H235.955V212.558H235.829L233.701 215.078L232.553 214.112L234.975 211.228H237.761V219.502H240.001V221Z" fill="black"/>
</g>
<g id="Icon_2">
<g id="Data--center">
<rect width="24" height="24" transform="translate(79 204)" fill="white" fill-opacity="0.01" style="mix-blend-mode:multiply"/>
<g id="Vector_2">
<path d="M100 211.5H96.25V208.5C96.2495 208.102 96.0914 207.721 95.8102 207.44C95.529 207.159 95.1477 207 94.75 207H87.25C86.8523 207 86.4711 207.159 86.1898 207.44C85.9086 207.721 85.7505 208.102 85.75 208.5V211.5H82C81.6023 211.5 81.221 211.659 80.9398 211.94C80.6586 212.221 80.5005 212.602 80.5 213V225C80.5005 225.398 80.6586 225.779 80.9398 226.06C81.221 226.341 81.6023 226.5 82 226.5H100C100.398 226.5 100.779 226.341 101.06 226.06C101.341 225.779 101.5 225.398 101.5 225V213C101.5 212.602 101.341 212.221 101.06 211.94C100.779 211.659 100.398 211.5 100 211.5ZM82 225V213H85.75V214.5H84.25V216H85.75V217.5H84.25V219H85.75V220.5H84.25V222H85.75V225H82ZM94.75 225H87.25V208.5H94.75V225ZM100 225H96.25V222H97.75V220.5H96.25V219H97.75V217.5H96.25V216H97.75V214.5H96.25V213H100V225Z" fill="black"/>
<path d="M92.5 210H89.5V211.5H92.5V210Z" fill="black"/>
<path d="M92.5 213H89.5V214.5H92.5V213Z" fill="black"/>
<path d="M92.5 216H89.5V217.5H92.5V216Z" fill="black"/>
</g>
</g>
</g>
</g>
<path id="Dash border" d="M69.083 192V192.5H73.1387V192H77.1943V192.5H81.25V192H85.3057V192.5H89.3613V192H93.417V192.5H97.4727V192H101.527V192.5H105.583V192H109.639V192.5H113.694V192H117.75V192.5H121.806V192H125.861V192.5H129.917V192H133.973V192.5H138.027V192H142.083V192.5H146.139V192H150.194V192.5H154.25V192H158.306V192.5H162.361V192H166.417V192.5H170.473V192H174.527V192.5H178.583V192H182.639V192.5H186.694V192H190.75V192.5H194.806V192H198.861V192.5H202.917V192H206.973V192.5H211.027V192H215.083V192.5H219.139V192H223.194V192.5H227.25V192H231.306V192.5H235.361V192H239.417V192.5H243.473V192H247.527V192.5H251.583V192H255.639V192.5H259.694V192H263.75V192.5H267.806V192H271.861V192.5H275.917V192H279.973V192.5H281.5V194H282V198H281.5V202H282V206H281.5V210H282V214H281.5V218H282V222H281.5V226H282V230H281.5V234H282V238H281.5V242H282V246H281.5V250H282V254H281.5V258H282V262H281.5V266H282V270H281.5V274H282V278H281.5V282H282V286H281.5V290H282V294H281.5V298H282V302H281.5V306H282V310H281.5V314H282V318H281.5V322H282V326H281.5V330H282V334H281.5V338H282V342H281.5V346H282V350H281.5V354H282V358H281.5V362H282V366H281.5V370H282V374H281.5V378H282V382H281.5V386H282V390H281.5V394H282V398H281.5V402H282V406H281.5V410H282V414H281.5V418H282V422H281.5V426H282V430H281.5V434H282V438H281.5V442H282V446H281.5V450H282V454H281.5V458H282V462H281.5V466H282V470H281.5V474H282V478H281.5V479.5H279.973V480H275.917V479.5H271.861V480H267.806V479.5H263.75V480H259.694V479.5H255.639V480H251.583V479.5H247.527V480H243.473V479.5H239.417V480H235.361V479.5H231.306V480H227.25V479.5H223.194V480H219.139V479.5H215.083V480H211.027V479.5H206.973V480H202.917V479.5H198.861V480H194.806V479.5H190.75V480H186.694V479.5H182.639V480H178.583V479.5H174.527V480H170.473V479.5H166.417V480H162.361V479.5H158.306V480H154.25V479.5H150.194V480H146.139V479.5H142.083V480H138.027V479.5H133.973V480H129.917V479.5H125.861V480H121.806V479.5H117.75V480H113.694V479.5H109.639V480H105.583V479.5H101.527V480H97.4727V479.5H93.417V480H89.3613V479.5H85.3057V480H81.25V479.5H77.1943V480H73.1387V479.5H69.083V480H65.0273V479.5H63.5V478H63V474H63.5V470H63V466H63.5V462H63V458H63.5V454H63V450H63.5V446H63V442H63.5V438H63V434H63.5V430H63V426H63.5V422H63V418H63.5V414H63V410H63.5V406H63V402H63.5V398H63V394H63.5V390H63V386H63.5V382H63V378H63.5V374H63V370H63.5V366H63V362H63.5V358H63V354H63.5V350H63V346H63.5V342H63V338H63.5V334H63V330H63.5V326H63V322H63.5V318H63V314H63.5V310H63V306H63.5V302H63V298H63.5V294H63V290H63.5V286H63V282H63.5V278H63V274H63.5V270H63V266H63.5V262H63V258H63.5V254H63V250H63.5V246H63V242H63.5V238H63V234H63.5V230H63V226H63.5V222H63V218H63.5V214H63V210H63.5V206H63V202H63.5V198H63V194H63.5V192.5H65.0273V192H69.083Z" stroke="black" stroke-dasharray="4 4"/>
</g>
<g id="Control plane_2">
<rect width="48" height="92" transform="translate(148.5 288)" fill="white" fill-opacity="0.01" style="mix-blend-mode:multiply"/>
<g id="Icon_3">
<path id="Background color_4" d="M156.5 288H188.5C192.918 288 196.5 291.582 196.5 296V328C196.5 332.418 192.918 336 188.5 336H156.5C152.082 336 148.5 332.418 148.5 328V296C148.5 291.582 152.082 288 156.5 288Z" fill="#0F62FE"/>
<g id="Database--elastic">
<rect width="24" height="24" transform="translate(160.5 300)" fill="white" fill-opacity="0.01"/>
<g id="Vector_3">
<path d="M173.871 316.552L175.216 315.241C175.509 315.618 175.882 315.924 176.309 316.136C176.736 316.348 177.206 316.46 177.682 316.465C178.734 316.465 179.182 316.069 179.182 315.43C179.182 314.913 178.872 314.585 178.079 314.482L177.182 314.361C175.25 314.12 174.181 313.275 174.181 311.636C174.181 309.894 175.544 308.791 177.596 308.791C178.251 308.741 178.91 308.843 179.52 309.088C180.13 309.333 180.675 309.715 181.114 310.205L179.821 311.498C179.546 311.199 179.214 310.958 178.843 310.792C178.472 310.626 178.071 310.538 177.665 310.533C176.716 310.533 176.302 310.912 176.302 311.464C176.302 312.068 176.63 312.343 177.475 312.481L178.389 312.602C180.355 312.878 181.304 313.758 181.304 315.258C181.304 317 179.838 318.207 177.596 318.207C176.889 318.238 176.185 318.105 175.539 317.818C174.892 317.53 174.321 317.097 173.871 316.552Z" fill="white"/>
<path d="M164.435 318V305.963H172.369V307.98H166.712V310.895H171.713V312.913H166.712V315.983H172.369V318H164.435Z" fill="white"/>
</g>
</g>
</g>
<g id="Label + Text_6">
<path id="Label_6" d="M157.783 358H151.343V348.228H157.783V349.866H153.191V352.232H157.251V353.87H153.191V356.362H157.783V358ZM162.543 358H161.577C160.359 358 159.785 357.356 159.785 356.236V347.64H161.577V356.572H162.543V358ZM165.867 358.168C164.383 358.168 163.543 357.314 163.543 356.012C163.543 354.514 164.677 353.772 166.665 353.772H167.911V353.24C167.911 352.428 167.505 351.952 166.553 351.952C165.713 351.952 165.237 352.372 164.887 352.876L163.823 351.924C164.355 351.084 165.209 350.524 166.679 350.524C168.653 350.524 169.703 351.462 169.703 353.128V356.572H170.431V358H169.437C168.667 358 168.191 357.496 168.079 356.74H167.995C167.757 357.678 166.959 358.168 165.867 358.168ZM166.469 356.866C167.267 356.866 167.911 356.502 167.911 355.816V354.85H166.763C165.825 354.85 165.363 355.172 165.363 355.746V355.984C165.363 356.572 165.769 356.866 166.469 356.866ZM174.435 358.168C173.049 358.168 172.139 357.664 171.411 356.824L172.503 355.76C173.035 356.376 173.679 356.754 174.505 356.754C175.359 356.754 175.723 356.432 175.723 355.914C175.723 355.494 175.471 355.228 174.827 355.144L174.099 355.046C172.531 354.85 171.663 354.164 171.663 352.834C171.663 351.42 172.769 350.524 174.435 350.524C175.863 350.524 176.591 350.944 177.291 351.672L176.241 352.722C175.821 352.274 175.205 351.938 174.491 351.938C173.721 351.938 173.385 352.246 173.385 352.694C173.385 353.184 173.651 353.408 174.337 353.52L175.079 353.618C176.675 353.842 177.445 354.556 177.445 355.774C177.445 357.188 176.255 358.168 174.435 358.168ZM181.36 358C180.128 358 179.47 357.328 179.47 356.138V352.12H178.392V350.692H178.952C179.484 350.692 179.652 350.44 179.652 349.936V348.69H181.262V350.692H182.76V352.12H181.262V356.572H182.648V358H181.36ZM185.37 349.628C184.628 349.628 184.32 349.25 184.32 348.732V348.452C184.32 347.934 184.628 347.556 185.37 347.556C186.098 347.556 186.42 347.934 186.42 348.452V348.732C186.42 349.25 186.098 349.628 185.37 349.628ZM184.474 358V350.692H186.266V358H184.474ZM191.387 358.168C189.231 358.168 188.013 356.684 188.013 354.332C188.013 351.994 189.231 350.524 191.387 350.524C192.857 350.524 193.823 351.224 194.257 352.372L192.787 353.03C192.619 352.414 192.157 351.966 191.387 351.966C190.393 351.966 189.889 352.666 189.889 353.688V355.018C189.889 356.04 190.393 356.726 191.387 356.726C192.241 356.726 192.661 356.236 192.927 355.578L194.299 356.236C193.823 357.524 192.801 358.168 191.387 358.168ZM153.805 376.168C152.419 376.168 151.509 375.664 150.781 374.824L151.873 373.76C152.405 374.376 153.049 374.754 153.875 374.754C154.729 374.754 155.093 374.432 155.093 373.914C155.093 373.494 154.841 373.228 154.197 373.144L153.469 373.046C151.901 372.85 151.033 372.164 151.033 370.834C151.033 369.42 152.139 368.524 153.805 368.524C155.233 368.524 155.961 368.944 156.661 369.672L155.611 370.722C155.191 370.274 154.575 369.938 153.861 369.938C153.091 369.938 152.755 370.246 152.755 370.694C152.755 371.184 153.021 371.408 153.707 371.52L154.449 371.618C156.045 371.842 156.815 372.556 156.815 373.774C156.815 375.188 155.625 376.168 153.805 376.168ZM161.512 376.168C159.356 376.168 158.068 374.67 158.068 372.332C158.068 370.022 159.314 368.524 161.456 368.524C163.738 368.524 164.788 370.204 164.788 372.206V372.794H159.93V372.976C159.93 374.026 160.532 374.74 161.708 374.74C162.59 374.74 163.122 374.32 163.57 373.746L164.536 374.824C163.934 375.65 162.87 376.168 161.512 376.168ZM161.484 369.868C160.546 369.868 159.93 370.568 159.93 371.576V371.688H162.926V371.562C162.926 370.554 162.408 369.868 161.484 369.868ZM168.33 376.168C166.846 376.168 166.006 375.314 166.006 374.012C166.006 372.514 167.14 371.772 169.128 371.772H170.374V371.24C170.374 370.428 169.968 369.952 169.016 369.952C168.176 369.952 167.7 370.372 167.35 370.876L166.286 369.924C166.818 369.084 167.672 368.524 169.142 368.524C171.116 368.524 172.166 369.462 172.166 371.128V374.572H172.894V376H171.9C171.13 376 170.654 375.496 170.542 374.74H170.458C170.22 375.678 169.422 376.168 168.33 376.168ZM168.932 374.866C169.73 374.866 170.374 374.502 170.374 373.816V372.85H169.226C168.288 372.85 167.826 373.172 167.826 373.746V373.984C167.826 374.572 168.232 374.866 168.932 374.866ZM176.297 376H174.505V368.692H176.297V370.204H176.367C176.549 369.434 177.137 368.692 178.299 368.692H178.691V370.386H178.131C176.927 370.386 176.297 370.722 176.297 371.52V376ZM182.976 376.168C180.82 376.168 179.602 374.684 179.602 372.332C179.602 369.994 180.82 368.524 182.976 368.524C184.446 368.524 185.412 369.224 185.846 370.372L184.376 371.03C184.208 370.414 183.746 369.966 182.976 369.966C181.982 369.966 181.478 370.666 181.478 371.688V373.018C181.478 374.04 181.982 374.726 182.976 374.726C183.83 374.726 184.25 374.236 184.516 373.578L185.888 374.236C185.412 375.524 184.39 376.168 182.976 376.168ZM187.43 376V365.64H189.222V369.91H189.292C189.586 369.126 190.202 368.524 191.336 368.524C192.834 368.524 193.674 369.56 193.674 371.38V376H191.882V371.562C191.882 370.526 191.532 369.994 190.678 369.994C189.936 369.994 189.222 370.386 189.222 371.17V376H187.43Z" fill="black"/>
</g>
</g>
</g>
<g id="Frame 3">
<g id="Location_4">
<rect width="219" height="288" transform="translate(298 192)" fill="white"/>
<rect id="Background white_6" x="298" y="192" width="219" height="288" fill="white"/>
<g id="Content_6" clip-path="url(#clip5_473_3212)">
<g id="Label + Text_7">
<path id="Label_7" d="M363.114 221H361.196L360.412 218.508H356.94L356.17 221H354.294L357.57 211.228H359.866L363.114 221ZM359.964 216.926L358.704 212.908H358.634L357.388 216.926H359.964ZM367.915 221H365.787L363.351 213.692H365.115L366.137 216.842L366.851 219.446H366.949L367.663 216.842L368.657 213.692H370.365L367.915 221ZM373.404 221.168C371.92 221.168 371.08 220.314 371.08 219.012C371.08 217.514 372.214 216.772 374.202 216.772H375.448V216.24C375.448 215.428 375.042 214.952 374.09 214.952C373.25 214.952 372.774 215.372 372.424 215.876L371.36 214.924C371.892 214.084 372.746 213.524 374.216 213.524C376.19 213.524 377.24 214.462 377.24 216.128V219.572H377.968V221H376.974C376.204 221 375.728 220.496 375.616 219.74H375.532C375.294 220.678 374.496 221.168 373.404 221.168ZM374.006 219.866C374.804 219.866 375.448 219.502 375.448 218.816V217.85H374.3C373.362 217.85 372.9 218.172 372.9 218.746V218.984C372.9 219.572 373.306 219.866 374.006 219.866ZM380.474 212.628C379.732 212.628 379.424 212.25 379.424 211.732V211.452C379.424 210.934 379.732 210.556 380.474 210.556C381.202 210.556 381.524 210.934 381.524 211.452V211.732C381.524 212.25 381.202 212.628 380.474 212.628ZM379.578 221V213.692H381.37V221H379.578ZM386.366 221H385.4C384.182 221 383.608 220.356 383.608 219.236V210.64H385.4V219.572H386.366V221ZM389.689 221.168C388.205 221.168 387.365 220.314 387.365 219.012C387.365 217.514 388.499 216.772 390.487 216.772H391.733V216.24C391.733 215.428 391.327 214.952 390.375 214.952C389.535 214.952 389.059 215.372 388.709 215.876L387.645 214.924C388.177 214.084 389.031 213.524 390.501 213.524C392.475 213.524 393.525 214.462 393.525 216.128V219.572H394.253V221H393.259C392.489 221 392.013 220.496 391.901 219.74H391.817C391.579 220.678 390.781 221.168 389.689 221.168ZM390.291 219.866C391.089 219.866 391.733 219.502 391.733 218.816V217.85H390.585C389.647 217.85 389.185 218.172 389.185 218.746V218.984C389.185 219.572 389.591 219.866 390.291 219.866ZM395.863 221V210.64H397.655V214.896H397.711C397.977 214.056 398.761 213.524 399.727 213.524C401.575 213.524 402.597 214.896 402.597 217.332C402.597 219.782 401.575 221.168 399.727 221.168C398.761 221.168 397.991 220.608 397.711 219.782H397.655V221H395.863ZM399.153 219.684C400.077 219.684 400.721 219.012 400.721 217.976V216.716C400.721 215.68 400.077 214.994 399.153 214.994C398.299 214.994 397.655 215.456 397.655 216.17V218.494C397.655 219.25 398.299 219.684 399.153 219.684ZM405.314 212.628C404.572 212.628 404.264 212.25 404.264 211.732V211.452C404.264 210.934 404.572 210.556 405.314 210.556C406.042 210.556 406.364 210.934 406.364 211.452V211.732C406.364 212.25 406.042 212.628 405.314 212.628ZM404.418 221V213.692H406.21V221H404.418ZM411.205 221H410.239C409.021 221 408.447 220.356 408.447 219.236V210.64H410.239V219.572H411.205V221ZM413.618 212.628C412.876 212.628 412.568 212.25 412.568 211.732V211.452C412.568 210.934 412.876 210.556 413.618 210.556C414.346 210.556 414.668 210.934 414.668 211.452V211.732C414.668 212.25 414.346 212.628 413.618 212.628ZM412.722 221V213.692H414.514V221H412.722ZM419.033 221C417.801 221 417.143 220.328 417.143 219.138V215.12H416.065V213.692H416.625C417.157 213.692 417.325 213.44 417.325 212.936V211.69H418.935V213.692H420.433V215.12H418.935V219.572H420.321V221H419.033ZM425.354 217.556L426.628 213.692H428.308L425.368 222.302C425.004 223.352 424.486 223.8 423.282 223.8H422.204V222.372H423.52L423.856 221.35L421.238 213.692H423.016L424.29 217.556L424.766 219.404H424.85L425.354 217.556ZM438.592 221H432.6V219.572L436.394 215.106H432.726V213.692H438.494V215.078L434.672 219.572H438.592V221ZM443.053 221.168C440.967 221.168 439.665 219.684 439.665 217.332C439.665 214.994 440.967 213.524 443.053 213.524C445.153 213.524 446.455 214.994 446.455 217.332C446.455 219.684 445.153 221.168 443.053 221.168ZM443.053 219.726C443.991 219.726 444.579 219.124 444.579 218.018V216.66C444.579 215.568 443.991 214.966 443.053 214.966C442.129 214.966 441.541 215.568 441.541 216.66V218.018C441.541 219.124 442.129 219.726 443.053 219.726ZM449.996 221H448.204V213.692H449.996V214.91H450.066C450.36 214.126 450.976 213.524 452.11 213.524C453.608 213.524 454.448 214.56 454.448 216.38V221H452.656V216.562C452.656 215.526 452.306 214.994 451.452 214.994C450.71 214.994 449.996 215.386 449.996 216.17V221ZM459.548 221.168C457.392 221.168 456.104 219.67 456.104 217.332C456.104 215.022 457.35 213.524 459.492 213.524C461.774 213.524 462.824 215.204 462.824 217.206V217.794H457.966V217.976C457.966 219.026 458.568 219.74 459.744 219.74C460.626 219.74 461.158 219.32 461.606 218.746L462.572 219.824C461.97 220.65 460.906 221.168 459.548 221.168ZM459.52 214.868C458.582 214.868 457.966 215.568 457.966 216.576V216.688H460.962V216.562C460.962 215.554 460.444 214.868 459.52 214.868ZM474.637 219.446V221H467.861V219.292L470.927 216.604C471.963 215.694 472.439 215.022 472.439 214.168V213.986C472.439 213.132 471.795 212.656 470.997 212.656C469.989 212.656 469.513 213.314 469.289 214.112L467.693 213.496C468.113 212.194 469.163 211.06 471.151 211.06C473.209 211.06 474.385 212.292 474.385 213.972C474.385 215.596 473.279 216.632 471.921 217.752L469.863 219.446H474.637Z" fill="black"/>
</g>
<g id="Icon_4">
<g id="Data--center_2">
<rect width="24" height="24" transform="translate(314 204)" fill="white" fill-opacity="0.01" style="mix-blend-mode:multiply"/>
<g id="Vector_4">
<path d="M335 211.5H331.25V208.5C331.25 208.102 331.091 207.721 330.81 207.44C330.529 207.159 330.148 207 329.75 207H322.25C321.852 207 321.471 207.159 321.19 207.44C320.909 207.721 320.75 208.102 320.75 208.5V211.5H317C316.602 211.5 316.221 211.659 315.94 211.94C315.659 212.221 315.5 212.602 315.5 213V225C315.5 225.398 315.659 225.779 315.94 226.06C316.221 226.341 316.602 226.5 317 226.5H335C335.398 226.5 335.779 226.341 336.06 226.06C336.341 225.779 336.5 225.398 336.5 225V213C336.5 212.602 336.341 212.221 336.06 211.94C335.779 211.659 335.398 211.5 335 211.5ZM317 225V213H320.75V214.5H319.25V216H320.75V217.5H319.25V219H320.75V220.5H319.25V222H320.75V225H317ZM329.75 225H322.25V208.5H329.75V225ZM335 225H331.25V222H332.75V220.5H331.25V219H332.75V217.5H331.25V216H332.75V214.5H331.25V213H335V225Z" fill="black"/>
<path d="M327.5 210H324.5V211.5H327.5V210Z" fill="black"/>
<path d="M327.5 213H324.5V214.5H327.5V213Z" fill="black"/>
<path d="M327.5 216H324.5V217.5H327.5V216Z" fill="black"/>
</g>
</g>
</g>
</g>
<path id="Dash border_2" d="M304.083 192V192.5H308.139V192H312.194V192.5H316.25V192H320.306V192.5H324.361V192H328.417V192.5H332.473V192H336.527V192.5H340.583V192H344.639V192.5H348.694V192H352.75V192.5H356.806V192H360.861V192.5H364.917V192H368.973V192.5H373.027V192H377.083V192.5H381.139V192H385.194V192.5H389.25V192H393.306V192.5H397.361V192H401.417V192.5H405.473V192H409.527V192.5H413.583V192H417.639V192.5H421.694V192H425.75V192.5H429.806V192H433.861V192.5H437.917V192H441.973V192.5H446.027V192H450.083V192.5H454.139V192H458.194V192.5H462.25V192H466.306V192.5H470.361V192H474.417V192.5H478.473V192H482.527V192.5H486.583V192H490.639V192.5H494.694V192H498.75V192.5H502.806V192H506.861V192.5H510.917V192H514.973V192.5H516.5V194H517V198H516.5V202H517V206H516.5V210H517V214H516.5V218H517V222H516.5V226H517V230H516.5V234H517V238H516.5V242H517V246H516.5V250H517V254H516.5V258H517V262H516.5V266H517V270H516.5V274H517V278H516.5V282H517V286H516.5V290H517V294H516.5V298H517V302H516.5V306H517V310H516.5V314H517V318H516.5V322H517V326H516.5V330H517V334H516.5V338H517V342H516.5V346H517V350H516.5V354H517V358H516.5V362H517V366H516.5V370H517V374H516.5V378H517V382H516.5V386H517V390H516.5V394H517V398H516.5V402H517V406H516.5V410H517V414H516.5V418H517V422H516.5V426H517V430H516.5V434H517V438H516.5V442H517V446H516.5V450H517V454H516.5V458H517V462H516.5V466H517V470H516.5V474H517V478H516.5V479.5H514.973V480H510.917V479.5H506.861V480H502.806V479.5H498.75V480H494.694V479.5H490.639V480H486.583V479.5H482.527V480H478.473V479.5H474.417V480H470.361V479.5H466.306V480H462.25V479.5H458.194V480H454.139V479.5H450.083V480H446.027V479.5H441.973V480H437.917V479.5H433.861V480H429.806V479.5H425.75V480H421.694V479.5H417.639V480H413.583V479.5H409.527V480H405.473V479.5H401.417V480H397.361V479.5H393.306V480H389.25V479.5H385.194V480H381.139V479.5H377.083V480H373.027V479.5H368.973V480H364.917V479.5H360.861V480H356.806V479.5H352.75V480H348.694V479.5H344.639V480H340.583V479.5H336.527V480H332.473V479.5H328.417V480H324.361V479.5H320.306V480H316.25V479.5H312.194V480H308.139V479.5H304.083V480H300.027V479.5H298.5V478H298V474H298.5V470H298V466H298.5V462H298V458H298.5V454H298V450H298.5V446H298V442H298.5V438H298V434H298.5V430H298V426H298.5V422H298V418H298.5V414H298V410H298.5V406H298V402H298.5V398H298V394H298.5V390H298V386H298.5V382H298V378H298.5V374H298V370H298.5V366H298V362H298.5V358H298V354H298.5V350H298V346H298.5V342H298V338H298.5V334H298V330H298.5V326H298V322H298.5V318H298V314H298.5V310H298V306H298.5V302H298V298H298.5V294H298V290H298.5V286H298V282H298.5V278H298V274H298.5V270H298V266H298.5V262H298V258H298.5V254H298V250H298.5V246H298V242H298.5V238H298V234H298.5V230H298V226H298.5V222H298V218H298.5V214H298V210H298.5V206H298V202H298.5V198H298V194H298.5V192.5H300.027V192H304.083Z" stroke="black" stroke-dasharray="4 4"/>
</g>
<g id="Control plane_3">
<rect width="48" height="92" transform="translate(383.5 288)" fill="white" fill-opacity="0.01" style="mix-blend-mode:multiply"/>
<g id="Icon_5">
<path id="Background color_5" d="M391.5 288H423.5C427.918 288 431.5 291.582 431.5 296V328C431.5 332.418 427.918 336 423.5 336H391.5C387.082 336 383.5 332.418 383.5 328V296C383.5 291.582 387.082 288 391.5 288Z" fill="#0F62FE"/>
<g id="Database--elastic_2">
<rect width="24" height="24" transform="translate(395.5 300)" fill="white" fill-opacity="0.01"/>
<g id="Vector_5">
<path d="M408.871 316.552L410.216 315.241C410.509 315.618 410.882 315.924 411.309 316.136C411.736 316.348 412.206 316.46 412.682 316.465C413.734 316.465 414.182 316.069 414.182 315.43C414.182 314.913 413.872 314.585 413.079 314.482L412.182 314.361C410.25 314.12 409.181 313.275 409.181 311.636C409.181 309.894 410.544 308.791 412.596 308.791C413.251 308.741 413.91 308.843 414.52 309.088C415.13 309.333 415.675 309.715 416.114 310.205L414.821 311.498C414.546 311.199 414.214 310.958 413.843 310.792C413.472 310.626 413.071 310.538 412.665 310.533C411.716 310.533 411.302 310.912 411.302 311.464C411.302 312.068 411.63 312.343 412.475 312.481L413.389 312.602C415.355 312.878 416.304 313.758 416.304 315.258C416.304 317 414.838 318.207 412.596 318.207C411.889 318.238 411.185 318.105 410.539 317.818C409.892 317.53 409.321 317.097 408.871 316.552Z" fill="white"/>
<path d="M399.435 318V305.963H407.369V307.98H401.712V310.895H406.713V312.913H401.712V315.983H407.369V318H399.435Z" fill="white"/>
</g>
</g>
</g>
<g id="Label + Text_8">
<path id="Label_8" d="M392.783 358H386.343V348.228H392.783V349.866H388.191V352.232H392.251V353.87H388.191V356.362H392.783V358ZM397.543 358H396.577C395.359 358 394.785 357.356 394.785 356.236V347.64H396.577V356.572H397.543V358ZM400.867 358.168C399.383 358.168 398.543 357.314 398.543 356.012C398.543 354.514 399.677 353.772 401.665 353.772H402.911V353.24C402.911 352.428 402.505 351.952 401.553 351.952C400.713 351.952 400.237 352.372 399.887 352.876L398.823 351.924C399.355 351.084 400.209 350.524 401.679 350.524C403.653 350.524 404.703 351.462 404.703 353.128V356.572H405.431V358H404.437C403.667 358 403.191 357.496 403.079 356.74H402.995C402.757 357.678 401.959 358.168 400.867 358.168ZM401.469 356.866C402.267 356.866 402.911 356.502 402.911 355.816V354.85H401.763C400.825 354.85 400.363 355.172 400.363 355.746V355.984C400.363 356.572 400.769 356.866 401.469 356.866ZM409.435 358.168C408.049 358.168 407.139 357.664 406.411 356.824L407.503 355.76C408.035 356.376 408.679 356.754 409.505 356.754C410.359 356.754 410.723 356.432 410.723 355.914C410.723 355.494 410.471 355.228 409.827 355.144L409.099 355.046C407.531 354.85 406.663 354.164 406.663 352.834C406.663 351.42 407.769 350.524 409.435 350.524C410.863 350.524 411.591 350.944 412.291 351.672L411.241 352.722C410.821 352.274 410.205 351.938 409.491 351.938C408.721 351.938 408.385 352.246 408.385 352.694C408.385 353.184 408.651 353.408 409.337 353.52L410.079 353.618C411.675 353.842 412.445 354.556 412.445 355.774C412.445 357.188 411.255 358.168 409.435 358.168ZM416.36 358C415.128 358 414.47 357.328 414.47 356.138V352.12H413.392V350.692H413.952C414.484 350.692 414.652 350.44 414.652 349.936V348.69H416.262V350.692H417.76V352.12H416.262V356.572H417.648V358H416.36ZM420.37 349.628C419.628 349.628 419.32 349.25 419.32 348.732V348.452C419.32 347.934 419.628 347.556 420.37 347.556C421.098 347.556 421.42 347.934 421.42 348.452V348.732C421.42 349.25 421.098 349.628 420.37 349.628ZM419.474 358V350.692H421.266V358H419.474ZM426.387 358.168C424.231 358.168 423.013 356.684 423.013 354.332C423.013 351.994 424.231 350.524 426.387 350.524C427.857 350.524 428.823 351.224 429.257 352.372L427.787 353.03C427.619 352.414 427.157 351.966 426.387 351.966C425.393 351.966 424.889 352.666 424.889 353.688V355.018C424.889 356.04 425.393 356.726 426.387 356.726C427.241 356.726 427.661 356.236 427.927 355.578L429.299 356.236C428.823 357.524 427.801 358.168 426.387 358.168ZM388.805 376.168C387.419 376.168 386.509 375.664 385.781 374.824L386.873 373.76C387.405 374.376 388.049 374.754 388.875 374.754C389.729 374.754 390.093 374.432 390.093 373.914C390.093 373.494 389.841 373.228 389.197 373.144L388.469 373.046C386.901 372.85 386.033 372.164 386.033 370.834C386.033 369.42 387.139 368.524 388.805 368.524C390.233 368.524 390.961 368.944 391.661 369.672L390.611 370.722C390.191 370.274 389.575 369.938 388.861 369.938C388.091 369.938 387.755 370.246 387.755 370.694C387.755 371.184 388.021 371.408 388.707 371.52L389.449 371.618C391.045 371.842 391.815 372.556 391.815 373.774C391.815 375.188 390.625 376.168 388.805 376.168ZM396.512 376.168C394.356 376.168 393.068 374.67 393.068 372.332C393.068 370.022 394.314 368.524 396.456 368.524C398.738 368.524 399.788 370.204 399.788 372.206V372.794H394.93V372.976C394.93 374.026 395.532 374.74 396.708 374.74C397.59 374.74 398.122 374.32 398.57 373.746L399.536 374.824C398.934 375.65 397.87 376.168 396.512 376.168ZM396.484 369.868C395.546 369.868 394.93 370.568 394.93 371.576V371.688H397.926V371.562C397.926 370.554 397.408 369.868 396.484 369.868ZM403.33 376.168C401.846 376.168 401.006 375.314 401.006 374.012C401.006 372.514 402.14 371.772 404.128 371.772H405.374V371.24C405.374 370.428 404.968 369.952 404.016 369.952C403.176 369.952 402.7 370.372 402.35 370.876L401.286 369.924C401.818 369.084 402.672 368.524 404.142 368.524C406.116 368.524 407.166 369.462 407.166 371.128V374.572H407.894V376H406.9C406.13 376 405.654 375.496 405.542 374.74H405.458C405.22 375.678 404.422 376.168 403.33 376.168ZM403.932 374.866C404.73 374.866 405.374 374.502 405.374 373.816V372.85H404.226C403.288 372.85 402.826 373.172 402.826 373.746V373.984C402.826 374.572 403.232 374.866 403.932 374.866ZM411.297 376H409.505V368.692H411.297V370.204H411.367C411.549 369.434 412.137 368.692 413.299 368.692H413.691V370.386H413.131C411.927 370.386 411.297 370.722 411.297 371.52V376ZM417.976 376.168C415.82 376.168 414.602 374.684 414.602 372.332C414.602 369.994 415.82 368.524 417.976 368.524C419.446 368.524 420.412 369.224 420.846 370.372L419.376 371.03C419.208 370.414 418.746 369.966 417.976 369.966C416.982 369.966 416.478 370.666 416.478 371.688V373.018C416.478 374.04 416.982 374.726 417.976 374.726C418.83 374.726 419.25 374.236 419.516 373.578L420.888 374.236C420.412 375.524 419.39 376.168 417.976 376.168ZM422.43 376V365.64H424.222V369.91H424.292C424.586 369.126 425.202 368.524 426.336 368.524C427.834 368.524 428.674 369.56 428.674 371.38V376H426.882V371.562C426.882 370.526 426.532 369.994 425.678 369.994C424.936 369.994 424.222 370.386 424.222 371.17V376H422.43Z" fill="black"/>
</g>
</g>
</g>
<g id="Frame 2">
<g id="Location_5">
<rect width="219" height="288" transform="translate(533 192)" fill="white"/>
<rect id="Background white_7" x="533" y="192" width="219" height="288" fill="white"/>
<g id="Content_7" clip-path="url(#clip6_473_3212)">
<g id="Label + Text_9">
<path id="Label_9" d="M598.114 221H596.196L595.412 218.508H591.94L591.17 221H589.294L592.57 211.228H594.866L598.114 221ZM594.964 216.926L593.704 212.908H593.634L592.388 216.926H594.964ZM602.915 221H600.787L598.351 213.692H600.115L601.137 216.842L601.851 219.446H601.949L602.663 216.842L603.657 213.692H605.365L602.915 221ZM608.404 221.168C606.92 221.168 606.08 220.314 606.08 219.012C606.08 217.514 607.214 216.772 609.202 216.772H610.448V216.24C610.448 215.428 610.042 214.952 609.09 214.952C608.25 214.952 607.774 215.372 607.424 215.876L606.36 214.924C606.892 214.084 607.746 213.524 609.216 213.524C611.19 213.524 612.24 214.462 612.24 216.128V219.572H612.968V221H611.974C611.204 221 610.728 220.496 610.616 219.74H610.532C610.294 220.678 609.496 221.168 608.404 221.168ZM609.006 219.866C609.804 219.866 610.448 219.502 610.448 218.816V217.85H609.3C608.362 217.85 607.9 218.172 607.9 218.746V218.984C607.9 219.572 608.306 219.866 609.006 219.866ZM615.474 212.628C614.732 212.628 614.424 212.25 614.424 211.732V211.452C614.424 210.934 614.732 210.556 615.474 210.556C616.202 210.556 616.524 210.934 616.524 211.452V211.732C616.524 212.25 616.202 212.628 615.474 212.628ZM614.578 221V213.692H616.37V221H614.578ZM621.366 221H620.4C619.182 221 618.608 220.356 618.608 219.236V210.64H620.4V219.572H621.366V221ZM624.689 221.168C623.205 221.168 622.365 220.314 622.365 219.012C622.365 217.514 623.499 216.772 625.487 216.772H626.733V216.24C626.733 215.428 626.327 214.952 625.375 214.952C624.535 214.952 624.059 215.372 623.709 215.876L622.645 214.924C623.177 214.084 624.031 213.524 625.501 213.524C627.475 213.524 628.525 214.462 628.525 216.128V219.572H629.253V221H628.259C627.489 221 627.013 220.496 626.901 219.74H626.817C626.579 220.678 625.781 221.168 624.689 221.168ZM625.291 219.866C626.089 219.866 626.733 219.502 626.733 218.816V217.85H625.585C624.647 217.85 624.185 218.172 624.185 218.746V218.984C624.185 219.572 624.591 219.866 625.291 219.866ZM630.863 221V210.64H632.655V214.896H632.711C632.977 214.056 633.761 213.524 634.727 213.524C636.575 213.524 637.597 214.896 637.597 217.332C637.597 219.782 636.575 221.168 634.727 221.168C633.761 221.168 632.991 220.608 632.711 219.782H632.655V221H630.863ZM634.153 219.684C635.077 219.684 635.721 219.012 635.721 217.976V216.716C635.721 215.68 635.077 214.994 634.153 214.994C633.299 214.994 632.655 215.456 632.655 216.17V218.494C632.655 219.25 633.299 219.684 634.153 219.684ZM640.314 212.628C639.572 212.628 639.264 212.25 639.264 211.732V211.452C639.264 210.934 639.572 210.556 640.314 210.556C641.042 210.556 641.364 210.934 641.364 211.452V211.732C641.364 212.25 641.042 212.628 640.314 212.628ZM639.418 221V213.692H641.21V221H639.418ZM646.205 221H645.239C644.021 221 643.447 220.356 643.447 219.236V210.64H645.239V219.572H646.205V221ZM648.618 212.628C647.876 212.628 647.568 212.25 647.568 211.732V211.452C647.568 210.934 647.876 210.556 648.618 210.556C649.346 210.556 649.668 210.934 649.668 211.452V211.732C649.668 212.25 649.346 212.628 648.618 212.628ZM647.722 221V213.692H649.514V221H647.722ZM654.033 221C652.801 221 652.143 220.328 652.143 219.138V215.12H651.065V213.692H651.625C652.157 213.692 652.325 213.44 652.325 212.936V211.69H653.935V213.692H655.433V215.12H653.935V219.572H655.321V221H654.033ZM660.354 217.556L661.628 213.692H663.308L660.368 222.302C660.004 223.352 659.486 223.8 658.282 223.8H657.204V222.372H658.52L658.856 221.35L656.238 213.692H658.016L659.29 217.556L659.766 219.404H659.85L660.354 217.556ZM673.592 221H667.6V219.572L671.394 215.106H667.726V213.692H673.494V215.078L669.672 219.572H673.592V221ZM678.053 221.168C675.967 221.168 674.665 219.684 674.665 217.332C674.665 214.994 675.967 213.524 678.053 213.524C680.153 213.524 681.455 214.994 681.455 217.332C681.455 219.684 680.153 221.168 678.053 221.168ZM678.053 219.726C678.991 219.726 679.579 219.124 679.579 218.018V216.66C679.579 215.568 678.991 214.966 678.053 214.966C677.129 214.966 676.541 215.568 676.541 216.66V218.018C676.541 219.124 677.129 219.726 678.053 219.726ZM684.996 221H683.204V213.692H684.996V214.91H685.066C685.36 214.126 685.976 213.524 687.11 213.524C688.608 213.524 689.448 214.56 689.448 216.38V221H687.656V216.562C687.656 215.526 687.306 214.994 686.452 214.994C685.71 214.994 684.996 215.386 684.996 216.17V221ZM694.548 221.168C692.392 221.168 691.104 219.67 691.104 217.332C691.104 215.022 692.35 213.524 694.492 213.524C696.774 213.524 697.824 215.204 697.824 217.206V217.794H692.966V217.976C692.966 219.026 693.568 219.74 694.744 219.74C695.626 219.74 696.158 219.32 696.606 218.746L697.572 219.824C696.97 220.65 695.906 221.168 694.548 221.168ZM694.52 214.868C693.582 214.868 692.966 215.568 692.966 216.576V216.688H695.962V216.562C695.962 215.554 695.444 214.868 694.52 214.868ZM704.695 215.176H705.661C706.781 215.176 707.299 214.658 707.299 213.958V213.86C707.299 213.062 706.739 212.572 705.857 212.572C705.003 212.572 704.331 213.006 703.855 213.748L702.679 212.684C703.337 211.774 704.261 211.06 705.913 211.06C707.887 211.06 709.231 212.04 709.231 213.608C709.231 214.868 708.377 215.624 707.355 215.834V215.918C708.489 216.128 709.399 216.912 709.399 218.298C709.399 220.02 707.957 221.168 705.801 221.168C703.897 221.168 702.945 220.3 702.329 219.348L703.687 218.312C704.121 219.096 704.709 219.656 705.801 219.656C706.879 219.656 707.481 219.096 707.481 218.186V218.088C707.481 217.192 706.823 216.716 705.661 216.716H704.695V215.176Z" fill="black"/>
</g>
<g id="Icon_6">
<g id="Data--center_3">
<rect width="24" height="24" transform="translate(549 204)" fill="white" fill-opacity="0.01" style="mix-blend-mode:multiply"/>
<g id="Vector_6">
<path d="M570 211.5H566.25V208.5C566.25 208.102 566.091 207.721 565.81 207.44C565.529 207.159 565.148 207 564.75 207H557.25C556.852 207 556.471 207.159 556.19 207.44C555.909 207.721 555.75 208.102 555.75 208.5V211.5H552C551.602 211.5 551.221 211.659 550.94 211.94C550.659 212.221 550.5 212.602 550.5 213V225C550.5 225.398 550.659 225.779 550.94 226.06C551.221 226.341 551.602 226.5 552 226.5H570C570.398 226.5 570.779 226.341 571.06 226.06C571.341 225.779 571.5 225.398 571.5 225V213C571.5 212.602 571.341 212.221 571.06 211.94C570.779 211.659 570.398 211.5 570 211.5ZM552 225V213H555.75V214.5H554.25V216H555.75V217.5H554.25V219H555.75V220.5H554.25V222H555.75V225H552ZM564.75 225H557.25V208.5H564.75V225ZM570 225H566.25V222H567.75V220.5H566.25V219H567.75V217.5H566.25V216H567.75V214.5H566.25V213H570V225Z" fill="black"/>
<path d="M562.5 210H559.5V211.5H562.5V210Z" fill="black"/>
<path d="M562.5 213H559.5V214.5H562.5V213Z" fill="black"/>
<path d="M562.5 216H559.5V217.5H562.5V216Z" fill="black"/>
</g>
</g>
</g>
</g>
<path id="Dash border_3" d="M539.083 192V192.5H543.139V192H547.194V192.5H551.25V192H555.306V192.5H559.361V192H563.417V192.5H567.473V192H571.527V192.5H575.583V192H579.639V192.5H583.694V192H587.75V192.5H591.806V192H595.861V192.5H599.917V192H603.973V192.5H608.027V192H612.083V192.5H616.139V192H620.194V192.5H624.25V192H628.306V192.5H632.361V192H636.417V192.5H640.473V192H644.527V192.5H648.583V192H652.639V192.5H656.694V192H660.75V192.5H664.806V192H668.861V192.5H672.917V192H676.973V192.5H681.027V192H685.083V192.5H689.139V192H693.194V192.5H697.25V192H701.306V192.5H705.361V192H709.417V192.5H713.473V192H717.527V192.5H721.583V192H725.639V192.5H729.694V192H733.75V192.5H737.806V192H741.861V192.5H745.917V192H749.973V192.5H751.5V194H752V198H751.5V202H752V206H751.5V210H752V214H751.5V218H752V222H751.5V226H752V230H751.5V234H752V238H751.5V242H752V246H751.5V250H752V254H751.5V258H752V262H751.5V266H752V270H751.5V274H752V278H751.5V282H752V286H751.5V290H752V294H751.5V298H752V302H751.5V306H752V310H751.5V314H752V318H751.5V322H752V326H751.5V330H752V334H751.5V338H752V342H751.5V346H752V350H751.5V354H752V358H751.5V362H752V366H751.5V370H752V374H751.5V378H752V382H751.5V386H752V390H751.5V394H752V398H751.5V402H752V406H751.5V410H752V414H751.5V418H752V422H751.5V426H752V430H751.5V434H752V438H751.5V442H752V446H751.5V450H752V454H751.5V458H752V462H751.5V466H752V470H751.5V474H752V478H751.5V479.5H749.973V480H745.917V479.5H741.861V480H737.806V479.5H733.75V480H729.694V479.5H725.639V480H721.583V479.5H717.527V480H713.473V479.5H709.417V480H705.361V479.5H701.306V480H697.25V479.5H693.194V480H689.139V479.5H685.083V480H681.027V479.5H676.973V480H672.917V479.5H668.861V480H664.806V479.5H660.75V480H656.694V479.5H652.639V480H648.583V479.5H644.527V480H640.473V479.5H636.417V480H632.361V479.5H628.306V480H624.25V479.5H620.194V480H616.139V479.5H612.083V480H608.027V479.5H603.973V480H599.917V479.5H595.861V480H591.806V479.5H587.75V480H583.694V479.5H579.639V480H575.583V479.5H571.527V480H567.473V479.5H563.417V480H559.361V479.5H555.306V480H551.25V479.5H547.194V480H543.139V479.5H539.083V480H535.027V479.5H533.5V478H533V474H533.5V470H533V466H533.5V462H533V458H533.5V454H533V450H533.5V446H533V442H533.5V438H533V434H533.5V430H533V426H533.5V422H533V418H533.5V414H533V410H533.5V406H533V402H533.5V398H533V394H533.5V390H533V386H533.5V382H533V378H533.5V374H533V370H533.5V366H533V362H533.5V358H533V354H533.5V350H533V346H533.5V342H533V338H533.5V334H533V330H533.5V326H533V322H533.5V318H533V314H533.5V310H533V306H533.5V302H533V298H533.5V294H533V290H533.5V286H533V282H533.5V278H533V274H533.5V270H533V266H533.5V262H533V258H533.5V254H533V250H533.5V246H533V242H533.5V238H533V234H533.5V230H533V226H533.5V222H533V218H533.5V214H533V210H533.5V206H533V202H533.5V198H533V194H533.5V192.5H535.027V192H539.083Z" stroke="black" stroke-dasharray="4 4"/>
</g>
<g id="Control plane_4">
<rect width="48" height="92" transform="translate(618.5 288)" fill="white" fill-opacity="0.01" style="mix-blend-mode:multiply"/>
<g id="Icon_7">
<path id="Background color_6" d="M626.5 288H658.5C662.918 288 666.5 291.582 666.5 296V328C666.5 332.418 662.918 336 658.5 336H626.5C622.082 336 618.5 332.418 618.5 328V296C618.5 291.582 622.082 288 626.5 288Z" fill="#0F62FE"/>
<g id="Database--elastic_3">
<rect width="24" height="24" transform="translate(630.5 300)" fill="white" fill-opacity="0.01"/>
<g id="Vector_7">
<path d="M643.871 316.552L645.216 315.241C645.509 315.618 645.882 315.924 646.309 316.136C646.736 316.348 647.206 316.46 647.682 316.465C648.734 316.465 649.182 316.069 649.182 315.43C649.182 314.913 648.872 314.585 648.079 314.482L647.182 314.361C645.25 314.12 644.181 313.275 644.181 311.636C644.181 309.894 645.544 308.791 647.596 308.791C648.251 308.741 648.91 308.843 649.52 309.088C650.13 309.333 650.675 309.715 651.114 310.205L649.821 311.498C649.546 311.199 649.214 310.958 648.843 310.792C648.472 310.626 648.071 310.538 647.665 310.533C646.716 310.533 646.302 310.912 646.302 311.464C646.302 312.068 646.63 312.343 647.475 312.481L648.389 312.602C650.355 312.878 651.304 313.758 651.304 315.258C651.304 317 649.838 318.207 647.596 318.207C646.889 318.238 646.185 318.105 645.539 317.818C644.892 317.53 644.321 317.097 643.871 316.552Z" fill="white"/>
<path d="M634.435 318V305.963H642.369V307.98H636.712V310.895H641.713V312.913H636.712V315.983H642.369V318H634.435Z" fill="white"/>
</g>
</g>
</g>
<g id="Label + Text_10">
<path id="Label_10" d="M627.783 358H621.343V348.228H627.783V349.866H623.191V352.232H627.251V353.87H623.191V356.362H627.783V358ZM632.543 358H631.577C630.359 358 629.785 357.356 629.785 356.236V347.64H631.577V356.572H632.543V358ZM635.867 358.168C634.383 358.168 633.543 357.314 633.543 356.012C633.543 354.514 634.677 353.772 636.665 353.772H637.911V353.24C637.911 352.428 637.505 351.952 636.553 351.952C635.713 351.952 635.237 352.372 634.887 352.876L633.823 351.924C634.355 351.084 635.209 350.524 636.679 350.524C638.653 350.524 639.703 351.462 639.703 353.128V356.572H640.431V358H639.437C638.667 358 638.191 357.496 638.079 356.74H637.995C637.757 357.678 636.959 358.168 635.867 358.168ZM636.469 356.866C637.267 356.866 637.911 356.502 637.911 355.816V354.85H636.763C635.825 354.85 635.363 355.172 635.363 355.746V355.984C635.363 356.572 635.769 356.866 636.469 356.866ZM644.435 358.168C643.049 358.168 642.139 357.664 641.411 356.824L642.503 355.76C643.035 356.376 643.679 356.754 644.505 356.754C645.359 356.754 645.723 356.432 645.723 355.914C645.723 355.494 645.471 355.228 644.827 355.144L644.099 355.046C642.531 354.85 641.663 354.164 641.663 352.834C641.663 351.42 642.769 350.524 644.435 350.524C645.863 350.524 646.591 350.944 647.291 351.672L646.241 352.722C645.821 352.274 645.205 351.938 644.491 351.938C643.721 351.938 643.385 352.246 643.385 352.694C643.385 353.184 643.651 353.408 644.337 353.52L645.079 353.618C646.675 353.842 647.445 354.556 647.445 355.774C647.445 357.188 646.255 358.168 644.435 358.168ZM651.36 358C650.128 358 649.47 357.328 649.47 356.138V352.12H648.392V350.692H648.952C649.484 350.692 649.652 350.44 649.652 349.936V348.69H651.262V350.692H652.76V352.12H651.262V356.572H652.648V358H651.36ZM655.37 349.628C654.628 349.628 654.32 349.25 654.32 348.732V348.452C654.32 347.934 654.628 347.556 655.37 347.556C656.098 347.556 656.42 347.934 656.42 348.452V348.732C656.42 349.25 656.098 349.628 655.37 349.628ZM654.474 358V350.692H656.266V358H654.474ZM661.387 358.168C659.231 358.168 658.013 356.684 658.013 354.332C658.013 351.994 659.231 350.524 661.387 350.524C662.857 350.524 663.823 351.224 664.257 352.372L662.787 353.03C662.619 352.414 662.157 351.966 661.387 351.966C660.393 351.966 659.889 352.666 659.889 353.688V355.018C659.889 356.04 660.393 356.726 661.387 356.726C662.241 356.726 662.661 356.236 662.927 355.578L664.299 356.236C663.823 357.524 662.801 358.168 661.387 358.168ZM623.805 376.168C622.419 376.168 621.509 375.664 620.781 374.824L621.873 373.76C622.405 374.376 623.049 374.754 623.875 374.754C624.729 374.754 625.093 374.432 625.093 373.914C625.093 373.494 624.841 373.228 624.197 373.144L623.469 373.046C621.901 372.85 621.033 372.164 621.033 370.834C621.033 369.42 622.139 368.524 623.805 368.524C625.233 368.524 625.961 368.944 626.661 369.672L625.611 370.722C625.191 370.274 624.575 369.938 623.861 369.938C623.091 369.938 622.755 370.246 622.755 370.694C622.755 371.184 623.021 371.408 623.707 371.52L624.449 371.618C626.045 371.842 626.815 372.556 626.815 373.774C626.815 375.188 625.625 376.168 623.805 376.168ZM631.512 376.168C629.356 376.168 628.068 374.67 628.068 372.332C628.068 370.022 629.314 368.524 631.456 368.524C633.738 368.524 634.788 370.204 634.788 372.206V372.794H629.93V372.976C629.93 374.026 630.532 374.74 631.708 374.74C632.59 374.74 633.122 374.32 633.57 373.746L634.536 374.824C633.934 375.65 632.87 376.168 631.512 376.168ZM631.484 369.868C630.546 369.868 629.93 370.568 629.93 371.576V371.688H632.926V371.562C632.926 370.554 632.408 369.868 631.484 369.868ZM638.33 376.168C636.846 376.168 636.006 375.314 636.006 374.012C636.006 372.514 637.14 371.772 639.128 371.772H640.374V371.24C640.374 370.428 639.968 369.952 639.016 369.952C638.176 369.952 637.7 370.372 637.35 370.876L636.286 369.924C636.818 369.084 637.672 368.524 639.142 368.524C641.116 368.524 642.166 369.462 642.166 371.128V374.572H642.894V376H641.9C641.13 376 640.654 375.496 640.542 374.74H640.458C640.22 375.678 639.422 376.168 638.33 376.168ZM638.932 374.866C639.73 374.866 640.374 374.502 640.374 373.816V372.85H639.226C638.288 372.85 637.826 373.172 637.826 373.746V373.984C637.826 374.572 638.232 374.866 638.932 374.866ZM646.297 376H644.505V368.692H646.297V370.204H646.367C646.549 369.434 647.137 368.692 648.299 368.692H648.691V370.386H648.131C646.927 370.386 646.297 370.722 646.297 371.52V376ZM652.976 376.168C650.82 376.168 649.602 374.684 649.602 372.332C649.602 369.994 650.82 368.524 652.976 368.524C654.446 368.524 655.412 369.224 655.846 370.372L654.376 371.03C654.208 370.414 653.746 369.966 652.976 369.966C651.982 369.966 651.478 370.666 651.478 371.688V373.018C651.478 374.04 651.982 374.726 652.976 374.726C653.83 374.726 654.25 374.236 654.516 373.578L655.888 374.236C655.412 375.524 654.39 376.168 652.976 376.168ZM657.43 376V365.64H659.222V369.91H659.292C659.586 369.126 660.202 368.524 661.336 368.524C662.834 368.524 663.674 369.56 663.674 371.38V376H661.882V371.562C661.882 370.526 661.532 369.994 660.678 369.994C659.936 369.994 659.222 370.386 659.222 371.17V376H657.43Z" fill="black"/>
</g>
</g>
</g>
</g>
</g>
<g id="Connector line + line ending">
<rect width="8" height="96" transform="translate(405 96)" fill="white" fill-opacity="0.01" style="mix-blend-mode:multiply"/>
<g id="Line wrapper + Line ending">
<g id="Line wrapper">
<g id="Line">
<rect width="89" height="0" transform="matrix(0 -1 1 0 409 185)" fill="white" fill-opacity="0.01" style="mix-blend-mode:multiply"/>
<path id="Line_2" d="M409 185V96" stroke="black"/>
</g>
</g>
<g id="Line ending end wrapper">
<g id="Line ending end">
<rect width="8" height="8" transform="matrix(0 1 1 0 405 184)" fill="white" fill-opacity="0.01" style="mix-blend-mode:multiply"/>
<path id="Vector_8" d="M405 184L409 192L413 184H405Z" fill="black"/>
</g>
</g>
</g>
</g>
<g id="Connector line + line ending_2">
<rect width="8" height="96" transform="translate(165 480)" fill="white" fill-opacity="0.01" style="mix-blend-mode:multiply"/>
<g id="Line wrapper + Line ending_2">
<g id="Line wrapper_2">
<g id="Line_3">
<rect width="89" height="0" transform="matrix(0 -1 1 0 169 569)" fill="white" fill-opacity="0.01" style="mix-blend-mode:multiply"/>
<path id="Line_4" d="M169 569V480" stroke="black"/>
</g>
</g>
<g id="Line ending end wrapper_2">
<g id="Line ending end_2">
<rect width="8" height="8" transform="matrix(0 1 1 0 165 568)" fill="white" fill-opacity="0.01" style="mix-blend-mode:multiply"/>
<path id="Vector_9" d="M165 568L169 576L173 568H165Z" fill="black"/>
</g>
</g>
</g>
</g>
<g id="Connector line + line ending_3">
<rect width="8" height="96" transform="translate(404 480)" fill="white" fill-opacity="0.01" style="mix-blend-mode:multiply"/>
<g id="Line wrapper + Line ending_3">
<g id="Line wrapper_3">
<g id="Line_5">
<rect width="89" height="0" transform="matrix(0 -1 1 0 408 569)" fill="white" fill-opacity="0.01" style="mix-blend-mode:multiply"/>
<path id="Line_6" d="M408 569V480" stroke="black"/>
</g>
</g>
<g id="Line ending end wrapper_3">
<g id="Line ending end_3">
<rect width="8" height="8" transform="matrix(0 1 1 0 404 568)" fill="white" fill-opacity="0.01" style="mix-blend-mode:multiply"/>
<path id="Vector_10" d="M404 568L408 576L412 568H404Z" fill="black"/>
</g>
</g>
</g>
</g>
<g id="Connector line + line ending_4">
<rect width="8" height="96" transform="translate(643 480)" fill="white" fill-opacity="0.01" style="mix-blend-mode:multiply"/>
<g id="Line wrapper + Line ending_4">
<g id="Line wrapper_4">
<g id="Line_7">
<rect width="89" height="0" transform="matrix(0 -1 1 0 647 569)" fill="white" fill-opacity="0.01" style="mix-blend-mode:multiply"/>
<path id="Line_8" d="M647 569V480" stroke="black"/>
</g>
</g>
<g id="Line ending end wrapper_4">
<g id="Line ending end_4">
<rect width="8" height="8" transform="matrix(0 1 1 0 643 568)" fill="white" fill-opacity="0.01" style="mix-blend-mode:multiply"/>
<path id="Vector_11" d="M643 568L647 576L651 568H643Z" fill="black"/>
</g>
</g>
</g>
</g>
<g id="Control plane_5">
<rect width="143" height="112" transform="translate(146 72)" fill="white" fill-opacity="0.01" style="mix-blend-mode:multiply"/>
<g id="Line wrapper_5">
<g id="Line_9">
<rect width="143" height="112" transform="translate(146 72)" fill="white" fill-opacity="0.01" style="mix-blend-mode:multiply"/>
<path id="Line_10" d="M289 72H154C149.582 72 146 75.5817 146 80V184" stroke="black"/>
</g>
</g>
<g id="Line ending end wrapper_5">
<g id="Line ending end_5">
<rect width="8" height="8" transform="matrix(0 1 1 0 142 184)" fill="white" fill-opacity="0.01" style="mix-blend-mode:multiply"/>
<path id="Vector_12" d="M142 184L146 192L150 184H142Z" fill="black"/>
</g>
</g>
</g>
<g id="Control plane_6">
<rect width="95" height="112" transform="matrix(-1 0 0 1 624 72)" fill="white" fill-opacity="0.01" style="mix-blend-mode:multiply"/>
<g id="Line wrapper_6">
<g id="Line_11">
<rect width="95" height="112" transform="matrix(-1 0 0 1 624 72)" fill="white" fill-opacity="0.01" style="mix-blend-mode:multiply"/>
<path id="Line_12" d="M529 72H616C620.418 72 624 75.5817 624 80V184" stroke="black"/>
</g>
</g>
<g id="Line ending end wrapper_6">
<g id="Line ending end_6">
<rect width="8" height="8" transform="matrix(0 1 -1 0 628 184)" fill="white" fill-opacity="0.01" style="mix-blend-mode:multiply"/>
<path id="Vector_13" d="M628 184L624 192L620 184H628Z" fill="black"/>
</g>
</g>
</g>
</g>
<defs>
<clipPath id="clip0_473_3212">
<rect width="816" height="48" fill="white"/>
</clipPath>
<clipPath id="clip1_473_3212">
<rect width="720" height="48" fill="white" transform="translate(48 576)"/>
</clipPath>
<clipPath id="clip2_473_3212">
<rect width="240" height="48" fill="white" transform="translate(309 48)"/>
</clipPath>
<clipPath id="clip3_473_3212">
<rect width="721" height="48" fill="white" transform="translate(47 144)"/>
</clipPath>
<clipPath id="clip4_473_3212">
<rect width="219" height="48" fill="white" transform="translate(63 192)"/>
</clipPath>
<clipPath id="clip5_473_3212">
<rect width="219" height="48" fill="white" transform="translate(298 192)"/>
</clipPath>
<clipPath id="clip6_473_3212">
<rect width="219" height="48" fill="white" transform="translate(533 192)"/>
</clipPath>
</defs>
</svg>
