<svg width="1056" height="768" viewBox="0 0 1056 768" fill="none" xmlns="http://www.w3.org/2000/svg">
<path d="M8 0.5H1048C1052.14 0.5 1055.5 3.85786 1055.5 8V760C1055.5 764.142 1052.14 767.5 1048 767.5H8C3.85787 767.5 0.5 764.142 0.5 760V8C0.500008 3.85787 3.85787 0.5 8 0.5Z" fill="white"/>
<path d="M8 0.5H1048C1052.14 0.5 1055.5 3.85786 1055.5 8V760C1055.5 764.142 1052.14 767.5 1048 767.5H8C3.85787 767.5 0.5 764.142 0.5 760V8C0.500008 3.85787 3.85787 0.5 8 0.5Z" stroke="#8D8D8D"/>
<path d="M1 8.00002C1 4.13403 4.13401 1 8 1H1048C1051.87 1 1055 4.13401 1055 8V760C1055 763.866 1051.87 767 1048 767H8.00002C4.13403 767 1 763.866 1 760V8.00002Z" fill="white"/>
<g clip-path="url(#clip0_571_9838)">
<path d="M61.18 29H56.742V27.516H58.03V20.712H56.742V19.228H61.18V20.712H59.878V27.516H61.18V29ZM63.2279 29V19.228H67.7499C69.3599 19.228 70.3399 20.222 70.3399 21.734C70.3399 23.218 69.4859 23.778 68.5899 23.834V23.918C69.4439 23.932 70.7039 24.534 70.7039 26.2C70.7039 27.768 69.6259 29 68.1839 29H63.2279ZM65.0759 24.814V27.432H67.6519C68.3519 27.432 68.7719 27.054 68.7719 26.368V25.892C68.7719 25.206 68.3519 24.814 67.6519 24.814H65.0759ZM65.0759 20.796V23.302H67.3579C68.0299 23.302 68.4219 22.91 68.4219 22.266V21.832C68.4219 21.174 68.0299 20.796 67.3579 20.796H65.0759ZM72.6711 29V19.228H74.7571L77.2631 24.002H77.3191L79.7971 19.228H81.7991V29H80.0491V21.986H79.9931L79.2371 23.54L77.2351 27.236L75.2331 23.54L74.4771 21.986H74.4211V29H72.6711ZM91.5234 29.168C88.9474 29.168 87.3094 27.474 87.3094 24.184C87.3094 20.894 88.9474 19.06 91.5234 19.06C93.2734 19.06 94.4074 19.802 95.0934 21.314L93.5114 22.154C93.2314 21.286 92.6154 20.698 91.5234 20.698C90.1514 20.698 89.2694 21.692 89.2694 23.358V24.898C89.2694 26.578 90.1514 27.53 91.5234 27.53C92.6294 27.53 93.3154 26.858 93.6374 25.976L95.1354 26.858C94.4354 28.314 93.2734 29.168 91.5234 29.168ZM99.5178 29H98.5518C97.3338 29 96.7598 28.356 96.7598 27.236V18.64H98.5518V27.572H99.5178V29ZM103.933 29.168C101.847 29.168 100.545 27.684 100.545 25.332C100.545 22.994 101.847 21.524 103.933 21.524C106.033 21.524 107.335 22.994 107.335 25.332C107.335 27.684 106.033 29.168 103.933 29.168ZM103.933 27.726C104.871 27.726 105.459 27.124 105.459 26.018V24.66C105.459 23.568 104.871 22.966 103.933 22.966C103.009 22.966 102.421 23.568 102.421 24.66V26.018C102.421 27.124 103.009 27.726 103.933 27.726ZM113.452 29V27.782H113.382C113.13 28.51 112.542 29.168 111.338 29.168C109.84 29.168 109 28.132 109 26.312V21.692H110.792V26.13C110.792 27.138 111.17 27.684 112.024 27.684C112.738 27.684 113.452 27.306 113.452 26.522V21.692H115.244V29H113.452ZM122.01 29V27.782H121.94C121.674 28.608 120.89 29.168 119.924 29.168C118.09 29.168 117.068 27.782 117.068 25.332C117.068 22.896 118.09 21.524 119.924 21.524C120.89 21.524 121.688 22.056 121.94 22.896H122.01V18.64H123.802V29H122.01ZM120.498 27.684C121.352 27.684 122.01 27.25 122.01 26.494V24.17C122.01 23.456 121.352 22.994 120.498 22.994C119.574 22.994 118.944 23.68 118.944 24.716V25.976C118.944 27.012 119.574 27.684 120.498 27.684Z" fill="black"/>
<rect width="24" height="24" transform="translate(16 12)" fill="white" fill-opacity="0.01" style="mix-blend-mode:multiply"/>
<path d="M28 17.25C28.3803 17.2499 28.7597 17.2876 29.1325 17.3625C30.3107 17.5882 31.3943 18.1618 32.2432 19.0094C33.0921 19.857 33.6675 20.9396 33.895 22.1175L34.09 23.13L35.1025 23.31C36.1252 23.4859 37.044 24.0407 37.6757 24.8639C38.3075 25.6871 38.6058 26.7181 38.5112 27.7515C38.4165 28.7848 37.9359 29.7446 37.1652 30.4393C36.3944 31.134 35.3901 31.5128 34.3525 31.5H21.625C20.5874 31.5128 19.5831 31.134 18.8124 30.4393C18.0416 29.7446 17.561 28.7848 17.4664 27.7515C17.3718 26.7181 17.6701 25.6871 18.3018 24.8639C18.9336 24.0407 19.8524 23.4859 20.875 23.31L21.88 23.13L22.075 22.1175C22.3393 20.7422 23.0764 19.5027 24.1585 18.6138C25.2406 17.7248 26.5996 17.2423 28 17.25ZM28 15.75C26.2545 15.7486 24.5631 16.356 23.2173 17.4677C21.8716 18.5793 20.9557 20.1256 20.6275 21.84C19.2463 22.0901 18.0084 22.8476 17.1571 23.9637C16.3058 25.0798 15.9026 26.4738 16.0267 27.8721C16.1507 29.2703 16.793 30.5716 17.8275 31.5204C18.862 32.4692 20.2138 32.997 21.6175 33H34.3675C35.7712 32.997 37.1231 32.4692 38.1576 31.5204C39.192 30.5716 39.8344 29.2703 39.9584 27.8721C40.0824 26.4738 39.6792 25.0798 38.8279 23.9637C37.9766 22.8476 36.7388 22.0901 35.3575 21.84C35.075 20.3654 34.3564 19.0095 33.2948 17.9478C32.2331 16.8861 30.8772 16.1675 29.4025 15.885C28.9401 15.7972 28.4707 15.7521 28 15.75Z" fill="black"/>
</g>
<rect x="48.5" y="96.5" width="959" height="287" fill="white" fill-opacity="0.01" style="mix-blend-mode:multiply"/>
<rect x="48.5" y="96.5" width="959" height="287" stroke="#0F62FE"/>
<rect x="49" y="97" width="958" height="286" fill="white"/>
<rect x="49" y="97" width="958" height="286" fill="#EDF5FF"/>
<g clip-path="url(#clip1_571_9838)">
<path d="M106.996 121.234V125H105.148V115.228H109.558C111.336 115.228 112.442 116.404 112.442 118.252C112.442 119.596 111.826 120.618 110.622 121.024L112.624 125H110.566L108.746 121.234H106.996ZM106.996 119.68H109.376C110.09 119.68 110.524 119.288 110.524 118.574V117.93C110.524 117.216 110.09 116.838 109.376 116.838H106.996V119.68ZM117.242 125.168C115.086 125.168 113.798 123.67 113.798 121.332C113.798 119.022 115.044 117.524 117.186 117.524C119.468 117.524 120.518 119.204 120.518 121.206V121.794H115.66V121.976C115.66 123.026 116.262 123.74 117.438 123.74C118.32 123.74 118.852 123.32 119.3 122.746L120.266 123.824C119.664 124.65 118.6 125.168 117.242 125.168ZM117.214 118.868C116.276 118.868 115.66 119.568 115.66 120.576V120.688H118.656V120.562C118.656 119.554 118.138 118.868 117.214 118.868ZM128.848 125.616C128.848 127.142 127.812 127.968 125.012 127.968C122.548 127.968 121.61 127.324 121.61 126.246C121.61 125.434 122.1 124.972 122.912 124.846V124.692C122.31 124.538 121.974 124.062 121.974 123.474C121.974 122.718 122.618 122.34 123.318 122.186V122.13C122.436 121.724 121.988 120.968 121.988 120.002C121.988 118.518 123.038 117.524 125.012 117.524C125.46 117.524 125.922 117.58 126.286 117.706V117.468C126.286 116.754 126.65 116.404 127.322 116.404H128.456V117.776H126.902V117.972C127.658 118.392 128.036 119.106 128.036 120.002C128.036 121.472 127 122.452 125.012 122.452C124.592 122.452 124.214 122.41 123.892 122.326C123.612 122.452 123.374 122.662 123.374 122.984C123.374 123.348 123.682 123.53 124.326 123.53H126.286C128.078 123.53 128.848 124.3 128.848 125.616ZM127.168 125.826C127.168 125.364 126.832 125.084 125.922 125.084H123.43C123.164 125.28 123.052 125.546 123.052 125.84C123.052 126.4 123.472 126.736 124.592 126.736H125.488C126.65 126.736 127.168 126.442 127.168 125.826ZM125.012 121.234C125.866 121.234 126.328 120.842 126.328 120.114V119.876C126.328 119.134 125.866 118.756 125.012 118.756C124.158 118.756 123.696 119.134 123.696 119.876V120.114C123.696 120.842 124.158 121.234 125.012 121.234ZM130.939 116.628C130.197 116.628 129.889 116.25 129.889 115.732V115.452C129.889 114.934 130.197 114.556 130.939 114.556C131.667 114.556 131.989 114.934 131.989 115.452V115.732C131.989 116.25 131.667 116.628 130.939 116.628ZM130.043 125V117.692H131.835V125H130.043ZM136.97 125.168C134.884 125.168 133.582 123.684 133.582 121.332C133.582 118.994 134.884 117.524 136.97 117.524C139.07 117.524 140.372 118.994 140.372 121.332C140.372 123.684 139.07 125.168 136.97 125.168ZM136.97 123.726C137.908 123.726 138.496 123.124 138.496 122.018V120.66C138.496 119.568 137.908 118.966 136.97 118.966C136.046 118.966 135.458 119.568 135.458 120.66V122.018C135.458 123.124 136.046 123.726 136.97 123.726ZM143.913 125H142.121V117.692H143.913V118.91H143.983C144.277 118.126 144.893 117.524 146.027 117.524C147.525 117.524 148.365 118.56 148.365 120.38V125H146.573V120.562C146.573 119.526 146.223 118.994 145.369 118.994C144.627 118.994 143.913 119.386 143.913 120.17V125Z" fill="black"/>
<rect width="24" height="24" transform="translate(64 108)" fill="white" fill-opacity="0.01" style="mix-blend-mode:multiply"/>
<path d="M76 121.5C75.2583 121.5 74.5333 121.28 73.9166 120.868C73.2999 120.456 72.8193 119.87 72.5355 119.185C72.2516 118.5 72.1774 117.746 72.3221 117.018C72.4668 116.291 72.8239 115.623 73.3484 115.098C73.8728 114.574 74.541 114.217 75.2684 114.072C75.9958 113.927 76.7498 114.002 77.4351 114.285C78.1203 114.569 78.706 115.05 79.118 115.667C79.5301 116.283 79.75 117.008 79.75 117.75C79.7489 118.744 79.3534 119.697 78.6504 120.4C77.9474 121.103 76.9942 121.499 76 121.5ZM76 115.5C75.555 115.5 75.12 115.632 74.75 115.879C74.38 116.126 74.0916 116.478 73.9213 116.889C73.751 117.3 73.7064 117.752 73.7932 118.189C73.8801 118.625 74.0943 119.026 74.409 119.341C74.7237 119.656 75.1246 119.87 75.5611 119.957C75.9975 120.044 76.4499 119.999 76.861 119.829C77.2722 119.658 77.6236 119.37 77.8708 119C78.118 118.63 78.25 118.195 78.25 117.75C78.2494 117.153 78.0121 116.582 77.5903 116.16C77.1685 115.738 76.5965 115.501 76 115.5Z" fill="black"/>
<path d="M76 130.5L69.6734 123.038C69.6375 122.996 69.4122 122.7 69.4122 122.7C68.3314 121.276 67.7475 119.537 67.75 117.75C67.75 115.562 68.6192 113.464 70.1664 111.916C71.7136 110.369 73.812 109.5 76 109.5C78.188 109.5 80.2865 110.369 81.8336 111.916C83.3808 113.464 84.25 115.562 84.25 117.75C84.2527 119.537 83.6692 121.275 82.5889 122.698L82.5878 122.7C82.5878 122.7 82.3628 122.996 82.3293 123.035L76 130.5ZM70.6094 121.796C70.6094 121.796 70.7844 122.027 70.8243 122.077L76 128.181L81.1825 122.068C81.2154 122.027 81.3916 121.794 81.3916 121.794C82.2746 120.631 82.7517 119.21 82.75 117.75C82.75 115.96 82.0388 114.243 80.773 112.977C79.5071 111.711 77.7902 111 76 111C74.2098 111 72.4929 111.711 71.227 112.977C69.9612 114.243 69.25 115.96 69.25 117.75C69.2483 119.211 69.7259 120.632 70.6094 121.796Z" fill="black"/>
<line x1="50" y1="96" x2="50" y2="144" stroke="#0F62FE" stroke-width="4"/>
</g>
<rect x="48.5" y="432.5" width="959" height="287" fill="white" fill-opacity="0.01" style="mix-blend-mode:multiply"/>
<rect x="48.5" y="432.5" width="959" height="287" stroke="#0F62FE"/>
<rect x="49" y="433" width="958" height="286" fill="white"/>
<rect x="49" y="433" width="958" height="286" fill="#EDF5FF"/>
<g clip-path="url(#clip2_571_9838)">
<path d="M106.996 457.234V461H105.148V451.228H109.558C111.336 451.228 112.442 452.404 112.442 454.252C112.442 455.596 111.826 456.618 110.622 457.024L112.624 461H110.566L108.746 457.234H106.996ZM106.996 455.68H109.376C110.09 455.68 110.524 455.288 110.524 454.574V453.93C110.524 453.216 110.09 452.838 109.376 452.838H106.996V455.68ZM117.242 461.168C115.086 461.168 113.798 459.67 113.798 457.332C113.798 455.022 115.044 453.524 117.186 453.524C119.468 453.524 120.518 455.204 120.518 457.206V457.794H115.66V457.976C115.66 459.026 116.262 459.74 117.438 459.74C118.32 459.74 118.852 459.32 119.3 458.746L120.266 459.824C119.664 460.65 118.6 461.168 117.242 461.168ZM117.214 454.868C116.276 454.868 115.66 455.568 115.66 456.576V456.688H118.656V456.562C118.656 455.554 118.138 454.868 117.214 454.868ZM128.848 461.616C128.848 463.142 127.812 463.968 125.012 463.968C122.548 463.968 121.61 463.324 121.61 462.246C121.61 461.434 122.1 460.972 122.912 460.846V460.692C122.31 460.538 121.974 460.062 121.974 459.474C121.974 458.718 122.618 458.34 123.318 458.186V458.13C122.436 457.724 121.988 456.968 121.988 456.002C121.988 454.518 123.038 453.524 125.012 453.524C125.46 453.524 125.922 453.58 126.286 453.706V453.468C126.286 452.754 126.65 452.404 127.322 452.404H128.456V453.776H126.902V453.972C127.658 454.392 128.036 455.106 128.036 456.002C128.036 457.472 127 458.452 125.012 458.452C124.592 458.452 124.214 458.41 123.892 458.326C123.612 458.452 123.374 458.662 123.374 458.984C123.374 459.348 123.682 459.53 124.326 459.53H126.286C128.078 459.53 128.848 460.3 128.848 461.616ZM127.168 461.826C127.168 461.364 126.832 461.084 125.922 461.084H123.43C123.164 461.28 123.052 461.546 123.052 461.84C123.052 462.4 123.472 462.736 124.592 462.736H125.488C126.65 462.736 127.168 462.442 127.168 461.826ZM125.012 457.234C125.866 457.234 126.328 456.842 126.328 456.114V455.876C126.328 455.134 125.866 454.756 125.012 454.756C124.158 454.756 123.696 455.134 123.696 455.876V456.114C123.696 456.842 124.158 457.234 125.012 457.234ZM130.939 452.628C130.197 452.628 129.889 452.25 129.889 451.732V451.452C129.889 450.934 130.197 450.556 130.939 450.556C131.667 450.556 131.989 450.934 131.989 451.452V451.732C131.989 452.25 131.667 452.628 130.939 452.628ZM130.043 461V453.692H131.835V461H130.043ZM136.97 461.168C134.884 461.168 133.582 459.684 133.582 457.332C133.582 454.994 134.884 453.524 136.97 453.524C139.07 453.524 140.372 454.994 140.372 457.332C140.372 459.684 139.07 461.168 136.97 461.168ZM136.97 459.726C137.908 459.726 138.496 459.124 138.496 458.018V456.66C138.496 455.568 137.908 454.966 136.97 454.966C136.046 454.966 135.458 455.568 135.458 456.66V458.018C135.458 459.124 136.046 459.726 136.97 459.726ZM143.913 461H142.121V453.692H143.913V454.91H143.983C144.277 454.126 144.893 453.524 146.027 453.524C147.525 453.524 148.365 454.56 148.365 456.38V461H146.573V456.562C146.573 455.526 146.223 454.994 145.369 454.994C144.627 454.994 143.913 455.386 143.913 456.17V461Z" fill="black"/>
<rect width="24" height="24" transform="translate(64 444)" fill="white" fill-opacity="0.01" style="mix-blend-mode:multiply"/>
<path d="M76 457.5C75.2583 457.5 74.5333 457.28 73.9166 456.868C73.2999 456.456 72.8193 455.87 72.5355 455.185C72.2516 454.5 72.1774 453.746 72.3221 453.018C72.4668 452.291 72.8239 451.623 73.3484 451.098C73.8728 450.574 74.541 450.217 75.2684 450.072C75.9958 449.927 76.7498 450.002 77.4351 450.285C78.1203 450.569 78.706 451.05 79.118 451.667C79.5301 452.283 79.75 453.008 79.75 453.75C79.7489 454.744 79.3534 455.697 78.6504 456.4C77.9474 457.103 76.9942 457.499 76 457.5ZM76 451.5C75.555 451.5 75.12 451.632 74.75 451.879C74.38 452.126 74.0916 452.478 73.9213 452.889C73.751 453.3 73.7064 453.752 73.7932 454.189C73.8801 454.625 74.0943 455.026 74.409 455.341C74.7237 455.656 75.1246 455.87 75.5611 455.957C75.9975 456.044 76.4499 455.999 76.861 455.829C77.2722 455.658 77.6236 455.37 77.8708 455C78.118 454.63 78.25 454.195 78.25 453.75C78.2494 453.153 78.0121 452.582 77.5903 452.16C77.1685 451.738 76.5965 451.501 76 451.5Z" fill="black"/>
<path d="M76 466.5L69.6734 459.038C69.6375 458.996 69.4122 458.7 69.4122 458.7C68.3314 457.276 67.7475 455.537 67.75 453.75C67.75 451.562 68.6192 449.464 70.1664 447.916C71.7136 446.369 73.812 445.5 76 445.5C78.188 445.5 80.2865 446.369 81.8336 447.916C83.3808 449.464 84.25 451.562 84.25 453.75C84.2527 455.537 83.6692 457.275 82.5889 458.698L82.5878 458.7C82.5878 458.7 82.3628 458.996 82.3293 459.035L76 466.5ZM70.6094 457.796C70.6094 457.796 70.7844 458.027 70.8243 458.077L76 464.181L81.1825 458.068C81.2154 458.027 81.3916 457.794 81.3916 457.794C82.2746 456.631 82.7517 455.21 82.75 453.75C82.75 451.96 82.0388 450.243 80.773 448.977C79.5071 447.711 77.7902 447 76 447C74.2098 447 72.4929 447.711 71.227 448.977C69.9612 450.243 69.25 451.96 69.25 453.75C69.2483 455.211 69.7259 456.632 70.6094 457.796Z" fill="black"/>
<line x1="50" y1="432" x2="50" y2="480" stroke="#0F62FE" stroke-width="4"/>
</g>
<rect width="208" height="192" transform="translate(288 176)" fill="white"/>
<rect x="288" y="176" width="208" height="192" fill="white"/>
<g clip-path="url(#clip3_571_9838)">
<path d="M353.114 205H351.196L350.412 202.508H346.94L346.17 205H344.294L347.57 195.228H349.866L353.114 205ZM349.964 200.926L348.704 196.908H348.634L347.388 200.926H349.964ZM357.915 205H355.787L353.351 197.692H355.115L356.137 200.842L356.851 203.446H356.949L357.663 200.842L358.657 197.692H360.365L357.915 205ZM363.404 205.168C361.92 205.168 361.08 204.314 361.08 203.012C361.08 201.514 362.214 200.772 364.202 200.772H365.448V200.24C365.448 199.428 365.042 198.952 364.09 198.952C363.25 198.952 362.774 199.372 362.424 199.876L361.36 198.924C361.892 198.084 362.746 197.524 364.216 197.524C366.19 197.524 367.24 198.462 367.24 200.128V203.572H367.968V205H366.974C366.204 205 365.728 204.496 365.616 203.74H365.532C365.294 204.678 364.496 205.168 363.404 205.168ZM364.006 203.866C364.804 203.866 365.448 203.502 365.448 202.816V201.85H364.3C363.362 201.85 362.9 202.172 362.9 202.746V202.984C362.9 203.572 363.306 203.866 364.006 203.866ZM370.474 196.628C369.732 196.628 369.424 196.25 369.424 195.732V195.452C369.424 194.934 369.732 194.556 370.474 194.556C371.202 194.556 371.524 194.934 371.524 195.452V195.732C371.524 196.25 371.202 196.628 370.474 196.628ZM369.578 205V197.692H371.37V205H369.578ZM376.366 205H375.4C374.182 205 373.608 204.356 373.608 203.236V194.64H375.4V203.572H376.366V205ZM379.689 205.168C378.205 205.168 377.365 204.314 377.365 203.012C377.365 201.514 378.499 200.772 380.487 200.772H381.733V200.24C381.733 199.428 381.327 198.952 380.375 198.952C379.535 198.952 379.059 199.372 378.709 199.876L377.645 198.924C378.177 198.084 379.031 197.524 380.501 197.524C382.475 197.524 383.525 198.462 383.525 200.128V203.572H384.253V205H383.259C382.489 205 382.013 204.496 381.901 203.74H381.817C381.579 204.678 380.781 205.168 379.689 205.168ZM380.291 203.866C381.089 203.866 381.733 203.502 381.733 202.816V201.85H380.585C379.647 201.85 379.185 202.172 379.185 202.746V202.984C379.185 203.572 379.591 203.866 380.291 203.866ZM385.863 205V194.64H387.655V198.896H387.711C387.977 198.056 388.761 197.524 389.727 197.524C391.575 197.524 392.597 198.896 392.597 201.332C392.597 203.782 391.575 205.168 389.727 205.168C388.761 205.168 387.991 204.608 387.711 203.782H387.655V205H385.863ZM389.153 203.684C390.077 203.684 390.721 203.012 390.721 201.976V200.716C390.721 199.68 390.077 198.994 389.153 198.994C388.299 198.994 387.655 199.456 387.655 200.17V202.494C387.655 203.25 388.299 203.684 389.153 203.684ZM395.314 196.628C394.572 196.628 394.264 196.25 394.264 195.732V195.452C394.264 194.934 394.572 194.556 395.314 194.556C396.042 194.556 396.364 194.934 396.364 195.452V195.732C396.364 196.25 396.042 196.628 395.314 196.628ZM394.418 205V197.692H396.21V205H394.418ZM401.205 205H400.239C399.021 205 398.447 204.356 398.447 203.236V194.64H400.239V203.572H401.205V205ZM403.618 196.628C402.876 196.628 402.568 196.25 402.568 195.732V195.452C402.568 194.934 402.876 194.556 403.618 194.556C404.346 194.556 404.668 194.934 404.668 195.452V195.732C404.668 196.25 404.346 196.628 403.618 196.628ZM402.722 205V197.692H404.514V205H402.722ZM409.033 205C407.801 205 407.143 204.328 407.143 203.138V199.12H406.065V197.692H406.625C407.157 197.692 407.325 197.44 407.325 196.936V195.69H408.935V197.692H410.433V199.12H408.935V203.572H410.321V205H409.033ZM415.354 201.556L416.628 197.692H418.308L415.368 206.302C415.004 207.352 414.486 207.8 413.282 207.8H412.204V206.372H413.52L413.856 205.35L411.238 197.692H413.016L414.29 201.556L414.766 203.404H414.85L415.354 201.556ZM428.592 205H422.6V203.572L426.394 199.106H422.726V197.692H428.494V199.078L424.672 203.572H428.592V205ZM433.053 205.168C430.967 205.168 429.665 203.684 429.665 201.332C429.665 198.994 430.967 197.524 433.053 197.524C435.153 197.524 436.455 198.994 436.455 201.332C436.455 203.684 435.153 205.168 433.053 205.168ZM433.053 203.726C433.991 203.726 434.579 203.124 434.579 202.018V200.66C434.579 199.568 433.991 198.966 433.053 198.966C432.129 198.966 431.541 199.568 431.541 200.66V202.018C431.541 203.124 432.129 203.726 433.053 203.726ZM439.996 205H438.204V197.692H439.996V198.91H440.066C440.36 198.126 440.976 197.524 442.11 197.524C443.608 197.524 444.448 198.56 444.448 200.38V205H442.656V200.562C442.656 199.526 442.306 198.994 441.452 198.994C440.71 198.994 439.996 199.386 439.996 200.17V205ZM449.548 205.168C447.392 205.168 446.104 203.67 446.104 201.332C446.104 199.022 447.35 197.524 449.492 197.524C451.774 197.524 452.824 199.204 452.824 201.206V201.794H447.966V201.976C447.966 203.026 448.568 203.74 449.744 203.74C450.626 203.74 451.158 203.32 451.606 202.746L452.572 203.824C451.97 204.65 450.906 205.168 449.548 205.168ZM449.52 198.868C448.582 198.868 447.966 199.568 447.966 200.576V200.688H450.962V200.562C450.962 199.554 450.444 198.868 449.52 198.868ZM464.637 203.446V205H457.861V203.292L460.927 200.604C461.963 199.694 462.439 199.022 462.439 198.168V197.986C462.439 197.132 461.795 196.656 460.997 196.656C459.989 196.656 459.513 197.314 459.289 198.112L457.693 197.496C458.113 196.194 459.163 195.06 461.151 195.06C463.209 195.06 464.385 196.292 464.385 197.972C464.385 199.596 463.279 200.632 461.921 201.752L459.863 203.446H464.637Z" fill="black"/>
<rect width="24" height="24" transform="translate(304 188)" fill="white" fill-opacity="0.01" style="mix-blend-mode:multiply"/>
<path d="M325 195.5H321.25V192.5C321.25 192.102 321.091 191.721 320.81 191.44C320.529 191.159 320.148 191 319.75 191H312.25C311.852 191 311.471 191.159 311.19 191.44C310.909 191.721 310.75 192.102 310.75 192.5V195.5H307C306.602 195.5 306.221 195.659 305.94 195.94C305.659 196.221 305.5 196.602 305.5 197V209C305.5 209.398 305.659 209.779 305.94 210.06C306.221 210.341 306.602 210.5 307 210.5H325C325.398 210.5 325.779 210.341 326.06 210.06C326.341 209.779 326.5 209.398 326.5 209V197C326.5 196.602 326.341 196.221 326.06 195.94C325.779 195.659 325.398 195.5 325 195.5ZM307 209V197H310.75V198.5H309.25V200H310.75V201.5H309.25V203H310.75V204.5H309.25V206H310.75V209H307ZM319.75 209H312.25V192.5H319.75V209ZM325 209H321.25V206H322.75V204.5H321.25V203H322.75V201.5H321.25V200H322.75V198.5H321.25V197H325V209Z" fill="black"/>
<path d="M317.5 194H314.5V195.5H317.5V194Z" fill="black"/>
<path d="M317.5 197H314.5V198.5H317.5V197Z" fill="black"/>
<path d="M317.5 200H314.5V201.5H317.5V200Z" fill="black"/>
</g>
<path d="M294 176V176.5H298V176H302V176.5H306V176H310V176.5H314V176H318V176.5H322V176H326V176.5H330V176H334V176.5H338V176H342V176.5H346V176H350V176.5H354V176H358V176.5H362V176H366V176.5H370V176H374V176.5H378V176H382V176.5H386V176H390V176.5H394V176H398V176.5H402V176H406V176.5H410V176H414V176.5H418V176H422V176.5H426V176H430V176.5H434V176H438V176.5H442V176H446V176.5H450V176H454V176.5H458V176H462V176.5H466V176H470V176.5H474V176H478V176.5H482V176H486V176.5H490V176H494V176.5H495.5V178H496V182H495.5V186H496V190H495.5V194H496V198H495.5V202H496V206H495.5V210H496V214H495.5V218H496V222H495.5V226H496V230H495.5V234H496V238H495.5V242H496V246H495.5V250H496V254H495.5V258H496V262H495.5V266H496V270H495.5V274H496V278H495.5V282H496V286H495.5V290H496V294H495.5V298H496V302H495.5V306H496V310H495.5V314H496V318H495.5V322H496V326H495.5V330H496V334H495.5V338H496V342H495.5V346H496V350H495.5V354H496V358H495.5V362H496V366H495.5V367.5H494V368H490V367.5H486V368H482V367.5H478V368H474V367.5H470V368H466V367.5H462V368H458V367.5H454V368H450V367.5H446V368H442V367.5H438V368H434V367.5H430V368H426V367.5H422V368H418V367.5H414V368H410V367.5H406V368H402V367.5H398V368H394V367.5H390V368H386V367.5H382V368H378V367.5H374V368H370V367.5H366V368H362V367.5H358V368H354V367.5H350V368H346V367.5H342V368H338V367.5H334V368H330V367.5H326V368H322V367.5H318V368H314V367.5H310V368H306V367.5H302V368H298V367.5H294V368H290V367.5H288.5V366H288V362H288.5V358H288V354H288.5V350H288V346H288.5V342H288V338H288.5V334H288V330H288.5V326H288V322H288.5V318H288V314H288.5V310H288V306H288.5V302H288V298H288.5V294H288V290H288.5V286H288V282H288.5V278H288V274H288.5V270H288V266H288.5V262H288V258H288.5V254H288V250H288.5V246H288V242H288.5V238H288V234H288.5V230H288V226H288.5V222H288V218H288.5V214H288V210H288.5V206H288V202H288.5V198H288V194H288.5V190H288V186H288.5V182H288V178H288.5V176.5H290V176H294Z" stroke="black" stroke-dasharray="4 4"/>
<rect width="48" height="92" transform="translate(368 248)" fill="white" fill-opacity="0.01" style="mix-blend-mode:multiply"/>
<path d="M376 248H408C412.418 248 416 251.582 416 256V288C416 292.418 412.418 296 408 296H376C371.582 296 368 292.418 368 288V256C368 251.582 371.582 248 376 248Z" fill="#0F62FE"/>
<rect width="24" height="24" transform="translate(380 260)" fill="white" fill-opacity="0.01"/>
<path d="M393.371 276.552L394.716 275.241C395.009 275.618 395.382 275.924 395.809 276.136C396.236 276.348 396.706 276.46 397.182 276.465C398.234 276.465 398.682 276.069 398.682 275.43C398.682 274.913 398.372 274.585 397.579 274.482L396.682 274.361C394.75 274.12 393.681 273.275 393.681 271.636C393.681 269.894 395.044 268.791 397.096 268.791C397.751 268.741 398.41 268.843 399.02 269.088C399.63 269.333 400.175 269.715 400.614 270.205L399.321 271.498C399.046 271.199 398.714 270.958 398.343 270.792C397.972 270.626 397.571 270.538 397.165 270.533C396.216 270.533 395.802 270.912 395.802 271.464C395.802 272.068 396.13 272.343 396.975 272.481L397.889 272.602C399.855 272.878 400.804 273.758 400.804 275.258C400.804 277 399.338 278.207 397.096 278.207C396.389 278.238 395.685 278.105 395.039 277.818C394.392 277.53 393.821 277.097 393.371 276.552Z" fill="white"/>
<path d="M383.935 278V265.963H391.869V267.98H386.212V270.895H391.213V272.913H386.212V275.983H391.869V278H383.935Z" fill="white"/>
<path d="M377.283 318H370.843V308.228H377.283V309.866H372.691V312.232H376.751V313.87H372.691V316.362H377.283V318ZM382.043 318H381.077C379.859 318 379.285 317.356 379.285 316.236V307.64H381.077V316.572H382.043V318ZM385.367 318.168C383.883 318.168 383.043 317.314 383.043 316.012C383.043 314.514 384.177 313.772 386.165 313.772H387.411V313.24C387.411 312.428 387.005 311.952 386.053 311.952C385.213 311.952 384.737 312.372 384.387 312.876L383.323 311.924C383.855 311.084 384.709 310.524 386.179 310.524C388.153 310.524 389.203 311.462 389.203 313.128V316.572H389.931V318H388.937C388.167 318 387.691 317.496 387.579 316.74H387.495C387.257 317.678 386.459 318.168 385.367 318.168ZM385.969 316.866C386.767 316.866 387.411 316.502 387.411 315.816V314.85H386.263C385.325 314.85 384.863 315.172 384.863 315.746V315.984C384.863 316.572 385.269 316.866 385.969 316.866ZM393.935 318.168C392.549 318.168 391.639 317.664 390.911 316.824L392.003 315.76C392.535 316.376 393.179 316.754 394.005 316.754C394.859 316.754 395.223 316.432 395.223 315.914C395.223 315.494 394.971 315.228 394.327 315.144L393.599 315.046C392.031 314.85 391.163 314.164 391.163 312.834C391.163 311.42 392.269 310.524 393.935 310.524C395.363 310.524 396.091 310.944 396.791 311.672L395.741 312.722C395.321 312.274 394.705 311.938 393.991 311.938C393.221 311.938 392.885 312.246 392.885 312.694C392.885 313.184 393.151 313.408 393.837 313.52L394.579 313.618C396.175 313.842 396.945 314.556 396.945 315.774C396.945 317.188 395.755 318.168 393.935 318.168ZM400.86 318C399.628 318 398.97 317.328 398.97 316.138V312.12H397.892V310.692H398.452C398.984 310.692 399.152 310.44 399.152 309.936V308.69H400.762V310.692H402.26V312.12H400.762V316.572H402.148V318H400.86ZM404.87 309.628C404.128 309.628 403.82 309.25 403.82 308.732V308.452C403.82 307.934 404.128 307.556 404.87 307.556C405.598 307.556 405.92 307.934 405.92 308.452V308.732C405.92 309.25 405.598 309.628 404.87 309.628ZM403.974 318V310.692H405.766V318H403.974ZM410.887 318.168C408.731 318.168 407.513 316.684 407.513 314.332C407.513 311.994 408.731 310.524 410.887 310.524C412.357 310.524 413.323 311.224 413.757 312.372L412.287 313.03C412.119 312.414 411.657 311.966 410.887 311.966C409.893 311.966 409.389 312.666 409.389 313.688V315.018C409.389 316.04 409.893 316.726 410.887 316.726C411.741 316.726 412.161 316.236 412.427 315.578L413.799 316.236C413.323 317.524 412.301 318.168 410.887 318.168ZM373.305 336.168C371.919 336.168 371.009 335.664 370.281 334.824L371.373 333.76C371.905 334.376 372.549 334.754 373.375 334.754C374.229 334.754 374.593 334.432 374.593 333.914C374.593 333.494 374.341 333.228 373.697 333.144L372.969 333.046C371.401 332.85 370.533 332.164 370.533 330.834C370.533 329.42 371.639 328.524 373.305 328.524C374.733 328.524 375.461 328.944 376.161 329.672L375.111 330.722C374.691 330.274 374.075 329.938 373.361 329.938C372.591 329.938 372.255 330.246 372.255 330.694C372.255 331.184 372.521 331.408 373.207 331.52L373.949 331.618C375.545 331.842 376.315 332.556 376.315 333.774C376.315 335.188 375.125 336.168 373.305 336.168ZM381.012 336.168C378.856 336.168 377.568 334.67 377.568 332.332C377.568 330.022 378.814 328.524 380.956 328.524C383.238 328.524 384.288 330.204 384.288 332.206V332.794H379.43V332.976C379.43 334.026 380.032 334.74 381.208 334.74C382.09 334.74 382.622 334.32 383.07 333.746L384.036 334.824C383.434 335.65 382.37 336.168 381.012 336.168ZM380.984 329.868C380.046 329.868 379.43 330.568 379.43 331.576V331.688H382.426V331.562C382.426 330.554 381.908 329.868 380.984 329.868ZM387.83 336.168C386.346 336.168 385.506 335.314 385.506 334.012C385.506 332.514 386.64 331.772 388.628 331.772H389.874V331.24C389.874 330.428 389.468 329.952 388.516 329.952C387.676 329.952 387.2 330.372 386.85 330.876L385.786 329.924C386.318 329.084 387.172 328.524 388.642 328.524C390.616 328.524 391.666 329.462 391.666 331.128V334.572H392.394V336H391.4C390.63 336 390.154 335.496 390.042 334.74H389.958C389.72 335.678 388.922 336.168 387.83 336.168ZM388.432 334.866C389.23 334.866 389.874 334.502 389.874 333.816V332.85H388.726C387.788 332.85 387.326 333.172 387.326 333.746V333.984C387.326 334.572 387.732 334.866 388.432 334.866ZM395.797 336H394.005V328.692H395.797V330.204H395.867C396.049 329.434 396.637 328.692 397.799 328.692H398.191V330.386H397.631C396.427 330.386 395.797 330.722 395.797 331.52V336ZM402.476 336.168C400.32 336.168 399.102 334.684 399.102 332.332C399.102 329.994 400.32 328.524 402.476 328.524C403.946 328.524 404.912 329.224 405.346 330.372L403.876 331.03C403.708 330.414 403.246 329.966 402.476 329.966C401.482 329.966 400.978 330.666 400.978 331.688V333.018C400.978 334.04 401.482 334.726 402.476 334.726C403.33 334.726 403.75 334.236 404.016 333.578L405.388 334.236C404.912 335.524 403.89 336.168 402.476 336.168ZM406.93 336V325.64H408.722V329.91H408.792C409.086 329.126 409.702 328.524 410.836 328.524C412.334 328.524 413.174 329.56 413.174 331.38V336H411.382V331.562C411.382 330.526 411.032 329.994 410.178 329.994C409.436 329.994 408.722 330.386 408.722 331.17V336H406.93Z" fill="black"/>
<rect width="208" height="192" transform="translate(64 176)" fill="white"/>
<rect x="64" y="176" width="208" height="192" fill="white"/>
<g clip-path="url(#clip4_571_9838)">
<path d="M129.114 205H127.196L126.412 202.508H122.94L122.17 205H120.294L123.57 195.228H125.866L129.114 205ZM125.964 200.926L124.704 196.908H124.634L123.388 200.926H125.964ZM133.915 205H131.787L129.351 197.692H131.115L132.137 200.842L132.851 203.446H132.949L133.663 200.842L134.657 197.692H136.365L133.915 205ZM139.404 205.168C137.92 205.168 137.08 204.314 137.08 203.012C137.08 201.514 138.214 200.772 140.202 200.772H141.448V200.24C141.448 199.428 141.042 198.952 140.09 198.952C139.25 198.952 138.774 199.372 138.424 199.876L137.36 198.924C137.892 198.084 138.746 197.524 140.216 197.524C142.19 197.524 143.24 198.462 143.24 200.128V203.572H143.968V205H142.974C142.204 205 141.728 204.496 141.616 203.74H141.532C141.294 204.678 140.496 205.168 139.404 205.168ZM140.006 203.866C140.804 203.866 141.448 203.502 141.448 202.816V201.85H140.3C139.362 201.85 138.9 202.172 138.9 202.746V202.984C138.9 203.572 139.306 203.866 140.006 203.866ZM146.474 196.628C145.732 196.628 145.424 196.25 145.424 195.732V195.452C145.424 194.934 145.732 194.556 146.474 194.556C147.202 194.556 147.524 194.934 147.524 195.452V195.732C147.524 196.25 147.202 196.628 146.474 196.628ZM145.578 205V197.692H147.37V205H145.578ZM152.366 205H151.4C150.182 205 149.608 204.356 149.608 203.236V194.64H151.4V203.572H152.366V205ZM155.689 205.168C154.205 205.168 153.365 204.314 153.365 203.012C153.365 201.514 154.499 200.772 156.487 200.772H157.733V200.24C157.733 199.428 157.327 198.952 156.375 198.952C155.535 198.952 155.059 199.372 154.709 199.876L153.645 198.924C154.177 198.084 155.031 197.524 156.501 197.524C158.475 197.524 159.525 198.462 159.525 200.128V203.572H160.253V205H159.259C158.489 205 158.013 204.496 157.901 203.74H157.817C157.579 204.678 156.781 205.168 155.689 205.168ZM156.291 203.866C157.089 203.866 157.733 203.502 157.733 202.816V201.85H156.585C155.647 201.85 155.185 202.172 155.185 202.746V202.984C155.185 203.572 155.591 203.866 156.291 203.866ZM161.863 205V194.64H163.655V198.896H163.711C163.977 198.056 164.761 197.524 165.727 197.524C167.575 197.524 168.597 198.896 168.597 201.332C168.597 203.782 167.575 205.168 165.727 205.168C164.761 205.168 163.991 204.608 163.711 203.782H163.655V205H161.863ZM165.153 203.684C166.077 203.684 166.721 203.012 166.721 201.976V200.716C166.721 199.68 166.077 198.994 165.153 198.994C164.299 198.994 163.655 199.456 163.655 200.17V202.494C163.655 203.25 164.299 203.684 165.153 203.684ZM171.314 196.628C170.572 196.628 170.264 196.25 170.264 195.732V195.452C170.264 194.934 170.572 194.556 171.314 194.556C172.042 194.556 172.364 194.934 172.364 195.452V195.732C172.364 196.25 172.042 196.628 171.314 196.628ZM170.418 205V197.692H172.21V205H170.418ZM177.205 205H176.239C175.021 205 174.447 204.356 174.447 203.236V194.64H176.239V203.572H177.205V205ZM179.618 196.628C178.876 196.628 178.568 196.25 178.568 195.732V195.452C178.568 194.934 178.876 194.556 179.618 194.556C180.346 194.556 180.668 194.934 180.668 195.452V195.732C180.668 196.25 180.346 196.628 179.618 196.628ZM178.722 205V197.692H180.514V205H178.722ZM185.033 205C183.801 205 183.143 204.328 183.143 203.138V199.12H182.065V197.692H182.625C183.157 197.692 183.325 197.44 183.325 196.936V195.69H184.935V197.692H186.433V199.12H184.935V203.572H186.321V205H185.033ZM191.354 201.556L192.628 197.692H194.308L191.368 206.302C191.004 207.352 190.486 207.8 189.282 207.8H188.204V206.372H189.52L189.856 205.35L187.238 197.692H189.016L190.29 201.556L190.766 203.404H190.85L191.354 201.556ZM204.592 205H198.6V203.572L202.394 199.106H198.726V197.692H204.494V199.078L200.672 203.572H204.592V205ZM209.053 205.168C206.967 205.168 205.665 203.684 205.665 201.332C205.665 198.994 206.967 197.524 209.053 197.524C211.153 197.524 212.455 198.994 212.455 201.332C212.455 203.684 211.153 205.168 209.053 205.168ZM209.053 203.726C209.991 203.726 210.579 203.124 210.579 202.018V200.66C210.579 199.568 209.991 198.966 209.053 198.966C208.129 198.966 207.541 199.568 207.541 200.66V202.018C207.541 203.124 208.129 203.726 209.053 203.726ZM215.996 205H214.204V197.692H215.996V198.91H216.066C216.36 198.126 216.976 197.524 218.11 197.524C219.608 197.524 220.448 198.56 220.448 200.38V205H218.656V200.562C218.656 199.526 218.306 198.994 217.452 198.994C216.71 198.994 215.996 199.386 215.996 200.17V205ZM225.548 205.168C223.392 205.168 222.104 203.67 222.104 201.332C222.104 199.022 223.35 197.524 225.492 197.524C227.774 197.524 228.824 199.204 228.824 201.206V201.794H223.966V201.976C223.966 203.026 224.568 203.74 225.744 203.74C226.626 203.74 227.158 203.32 227.606 202.746L228.572 203.824C227.97 204.65 226.906 205.168 225.548 205.168ZM225.52 198.868C224.582 198.868 223.966 199.568 223.966 200.576V200.688H226.962V200.562C226.962 199.554 226.444 198.868 225.52 198.868ZM241.001 205H234.267V203.502H236.955V196.558H236.829L234.701 199.078L233.553 198.112L235.975 195.228H238.761V203.502H241.001V205Z" fill="black"/>
<rect width="24" height="24" transform="translate(80 188)" fill="white" fill-opacity="0.01" style="mix-blend-mode:multiply"/>
<path d="M101 195.5H97.25V192.5C97.2495 192.102 97.0914 191.721 96.8102 191.44C96.529 191.159 96.1477 191 95.75 191H88.25C87.8523 191 87.4711 191.159 87.1898 191.44C86.9086 191.721 86.7505 192.102 86.75 192.5V195.5H83C82.6023 195.5 82.221 195.659 81.9398 195.94C81.6586 196.221 81.5005 196.602 81.5 197V209C81.5005 209.398 81.6586 209.779 81.9398 210.06C82.221 210.341 82.6023 210.5 83 210.5H101C101.398 210.5 101.779 210.341 102.06 210.06C102.341 209.779 102.5 209.398 102.5 209V197C102.5 196.602 102.341 196.221 102.06 195.94C101.779 195.659 101.398 195.5 101 195.5ZM83 209V197H86.75V198.5H85.25V200H86.75V201.5H85.25V203H86.75V204.5H85.25V206H86.75V209H83ZM95.75 209H88.25V192.5H95.75V209ZM101 209H97.25V206H98.75V204.5H97.25V203H98.75V201.5H97.25V200H98.75V198.5H97.25V197H101V209Z" fill="black"/>
<path d="M93.5 194H90.5V195.5H93.5V194Z" fill="black"/>
<path d="M93.5 197H90.5V198.5H93.5V197Z" fill="black"/>
<path d="M93.5 200H90.5V201.5H93.5V200Z" fill="black"/>
</g>
<path d="M70 176V176.5H74V176H78V176.5H82V176H86V176.5H90V176H94V176.5H98V176H102V176.5H106V176H110V176.5H114V176H118V176.5H122V176H126V176.5H130V176H134V176.5H138V176H142V176.5H146V176H150V176.5H154V176H158V176.5H162V176H166V176.5H170V176H174V176.5H178V176H182V176.5H186V176H190V176.5H194V176H198V176.5H202V176H206V176.5H210V176H214V176.5H218V176H222V176.5H226V176H230V176.5H234V176H238V176.5H242V176H246V176.5H250V176H254V176.5H258V176H262V176.5H266V176H270V176.5H271.5V178H272V182H271.5V186H272V190H271.5V194H272V198H271.5V202H272V206H271.5V210H272V214H271.5V218H272V222H271.5V226H272V230H271.5V234H272V238H271.5V242H272V246H271.5V250H272V254H271.5V258H272V262H271.5V266H272V270H271.5V274H272V278H271.5V282H272V286H271.5V290H272V294H271.5V298H272V302H271.5V306H272V310H271.5V314H272V318H271.5V322H272V326H271.5V330H272V334H271.5V338H272V342H271.5V346H272V350H271.5V354H272V358H271.5V362H272V366H271.5V367.5H270V368H266V367.5H262V368H258V367.5H254V368H250V367.5H246V368H242V367.5H238V368H234V367.5H230V368H226V367.5H222V368H218V367.5H214V368H210V367.5H206V368H202V367.5H198V368H194V367.5H190V368H186V367.5H182V368H178V367.5H174V368H170V367.5H166V368H162V367.5H158V368H154V367.5H150V368H146V367.5H142V368H138V367.5H134V368H130V367.5H126V368H122V367.5H118V368H114V367.5H110V368H106V367.5H102V368H98V367.5H94V368H90V367.5H86V368H82V367.5H78V368H74V367.5H70V368H66V367.5H64.5V366H64V362H64.5V358H64V354H64.5V350H64V346H64.5V342H64V338H64.5V334H64V330H64.5V326H64V322H64.5V318H64V314H64.5V310H64V306H64.5V302H64V298H64.5V294H64V290H64.5V286H64V282H64.5V278H64V274H64.5V270H64V266H64.5V262H64V258H64.5V254H64V250H64.5V246H64V242H64.5V238H64V234H64.5V230H64V226H64.5V222H64V218H64.5V214H64V210H64.5V206H64V202H64.5V198H64V194H64.5V190H64V186H64.5V182H64V178H64.5V176.5H66V176H70Z" stroke="black" stroke-dasharray="4 4"/>
<rect width="48" height="92" transform="translate(144 248)" fill="white" fill-opacity="0.01" style="mix-blend-mode:multiply"/>
<path d="M152 248H184C188.418 248 192 251.582 192 256V288C192 292.418 188.418 296 184 296H152C147.582 296 144 292.418 144 288V256C144 251.582 147.582 248 152 248Z" fill="#0F62FE"/>
<rect width="24" height="24" transform="translate(156 260)" fill="white" fill-opacity="0.01"/>
<path d="M169.371 276.552L170.716 275.241C171.009 275.618 171.382 275.924 171.809 276.136C172.236 276.348 172.706 276.46 173.182 276.465C174.234 276.465 174.682 276.069 174.682 275.43C174.682 274.913 174.372 274.585 173.579 274.482L172.682 274.361C170.75 274.12 169.681 273.275 169.681 271.636C169.681 269.894 171.044 268.791 173.096 268.791C173.751 268.741 174.41 268.843 175.02 269.088C175.63 269.333 176.175 269.715 176.614 270.205L175.321 271.498C175.046 271.199 174.714 270.958 174.343 270.792C173.972 270.626 173.571 270.538 173.165 270.533C172.216 270.533 171.802 270.912 171.802 271.464C171.802 272.068 172.13 272.343 172.975 272.481L173.889 272.602C175.855 272.878 176.804 273.758 176.804 275.258C176.804 277 175.338 278.207 173.096 278.207C172.389 278.238 171.685 278.105 171.039 277.818C170.392 277.53 169.821 277.097 169.371 276.552Z" fill="white"/>
<path d="M159.935 278V265.963H167.869V267.98H162.212V270.895H167.213V272.913H162.212V275.983H167.869V278H159.935Z" fill="white"/>
<path d="M153.283 318H146.843V308.228H153.283V309.866H148.691V312.232H152.751V313.87H148.691V316.362H153.283V318ZM158.043 318H157.077C155.859 318 155.285 317.356 155.285 316.236V307.64H157.077V316.572H158.043V318ZM161.367 318.168C159.883 318.168 159.043 317.314 159.043 316.012C159.043 314.514 160.177 313.772 162.165 313.772H163.411V313.24C163.411 312.428 163.005 311.952 162.053 311.952C161.213 311.952 160.737 312.372 160.387 312.876L159.323 311.924C159.855 311.084 160.709 310.524 162.179 310.524C164.153 310.524 165.203 311.462 165.203 313.128V316.572H165.931V318H164.937C164.167 318 163.691 317.496 163.579 316.74H163.495C163.257 317.678 162.459 318.168 161.367 318.168ZM161.969 316.866C162.767 316.866 163.411 316.502 163.411 315.816V314.85H162.263C161.325 314.85 160.863 315.172 160.863 315.746V315.984C160.863 316.572 161.269 316.866 161.969 316.866ZM169.935 318.168C168.549 318.168 167.639 317.664 166.911 316.824L168.003 315.76C168.535 316.376 169.179 316.754 170.005 316.754C170.859 316.754 171.223 316.432 171.223 315.914C171.223 315.494 170.971 315.228 170.327 315.144L169.599 315.046C168.031 314.85 167.163 314.164 167.163 312.834C167.163 311.42 168.269 310.524 169.935 310.524C171.363 310.524 172.091 310.944 172.791 311.672L171.741 312.722C171.321 312.274 170.705 311.938 169.991 311.938C169.221 311.938 168.885 312.246 168.885 312.694C168.885 313.184 169.151 313.408 169.837 313.52L170.579 313.618C172.175 313.842 172.945 314.556 172.945 315.774C172.945 317.188 171.755 318.168 169.935 318.168ZM176.86 318C175.628 318 174.97 317.328 174.97 316.138V312.12H173.892V310.692H174.452C174.984 310.692 175.152 310.44 175.152 309.936V308.69H176.762V310.692H178.26V312.12H176.762V316.572H178.148V318H176.86ZM180.87 309.628C180.128 309.628 179.82 309.25 179.82 308.732V308.452C179.82 307.934 180.128 307.556 180.87 307.556C181.598 307.556 181.92 307.934 181.92 308.452V308.732C181.92 309.25 181.598 309.628 180.87 309.628ZM179.974 318V310.692H181.766V318H179.974ZM186.887 318.168C184.731 318.168 183.513 316.684 183.513 314.332C183.513 311.994 184.731 310.524 186.887 310.524C188.357 310.524 189.323 311.224 189.757 312.372L188.287 313.03C188.119 312.414 187.657 311.966 186.887 311.966C185.893 311.966 185.389 312.666 185.389 313.688V315.018C185.389 316.04 185.893 316.726 186.887 316.726C187.741 316.726 188.161 316.236 188.427 315.578L189.799 316.236C189.323 317.524 188.301 318.168 186.887 318.168ZM149.305 336.168C147.919 336.168 147.009 335.664 146.281 334.824L147.373 333.76C147.905 334.376 148.549 334.754 149.375 334.754C150.229 334.754 150.593 334.432 150.593 333.914C150.593 333.494 150.341 333.228 149.697 333.144L148.969 333.046C147.401 332.85 146.533 332.164 146.533 330.834C146.533 329.42 147.639 328.524 149.305 328.524C150.733 328.524 151.461 328.944 152.161 329.672L151.111 330.722C150.691 330.274 150.075 329.938 149.361 329.938C148.591 329.938 148.255 330.246 148.255 330.694C148.255 331.184 148.521 331.408 149.207 331.52L149.949 331.618C151.545 331.842 152.315 332.556 152.315 333.774C152.315 335.188 151.125 336.168 149.305 336.168ZM157.012 336.168C154.856 336.168 153.568 334.67 153.568 332.332C153.568 330.022 154.814 328.524 156.956 328.524C159.238 328.524 160.288 330.204 160.288 332.206V332.794H155.43V332.976C155.43 334.026 156.032 334.74 157.208 334.74C158.09 334.74 158.622 334.32 159.07 333.746L160.036 334.824C159.434 335.65 158.37 336.168 157.012 336.168ZM156.984 329.868C156.046 329.868 155.43 330.568 155.43 331.576V331.688H158.426V331.562C158.426 330.554 157.908 329.868 156.984 329.868ZM163.83 336.168C162.346 336.168 161.506 335.314 161.506 334.012C161.506 332.514 162.64 331.772 164.628 331.772H165.874V331.24C165.874 330.428 165.468 329.952 164.516 329.952C163.676 329.952 163.2 330.372 162.85 330.876L161.786 329.924C162.318 329.084 163.172 328.524 164.642 328.524C166.616 328.524 167.666 329.462 167.666 331.128V334.572H168.394V336H167.4C166.63 336 166.154 335.496 166.042 334.74H165.958C165.72 335.678 164.922 336.168 163.83 336.168ZM164.432 334.866C165.23 334.866 165.874 334.502 165.874 333.816V332.85H164.726C163.788 332.85 163.326 333.172 163.326 333.746V333.984C163.326 334.572 163.732 334.866 164.432 334.866ZM171.797 336H170.005V328.692H171.797V330.204H171.867C172.049 329.434 172.637 328.692 173.799 328.692H174.191V330.386H173.631C172.427 330.386 171.797 330.722 171.797 331.52V336ZM178.476 336.168C176.32 336.168 175.102 334.684 175.102 332.332C175.102 329.994 176.32 328.524 178.476 328.524C179.946 328.524 180.912 329.224 181.346 330.372L179.876 331.03C179.708 330.414 179.246 329.966 178.476 329.966C177.482 329.966 176.978 330.666 176.978 331.688V333.018C176.978 334.04 177.482 334.726 178.476 334.726C179.33 334.726 179.75 334.236 180.016 333.578L181.388 334.236C180.912 335.524 179.89 336.168 178.476 336.168ZM182.93 336V325.64H184.722V329.91H184.792C185.086 329.126 185.702 328.524 186.836 328.524C188.334 328.524 189.174 329.56 189.174 331.38V336H187.382V331.562C187.382 330.526 187.032 329.994 186.178 329.994C185.436 329.994 184.722 330.386 184.722 331.17V336H182.93Z" fill="black"/>
<rect width="208" height="192" transform="translate(512 176)" fill="white"/>
<rect x="512" y="176" width="208" height="192" fill="white"/>
<g clip-path="url(#clip5_571_9838)">
<path d="M577.114 205H575.196L574.412 202.508H570.94L570.17 205H568.294L571.57 195.228H573.866L577.114 205ZM573.964 200.926L572.704 196.908H572.634L571.388 200.926H573.964ZM581.915 205H579.787L577.351 197.692H579.115L580.137 200.842L580.851 203.446H580.949L581.663 200.842L582.657 197.692H584.365L581.915 205ZM587.404 205.168C585.92 205.168 585.08 204.314 585.08 203.012C585.08 201.514 586.214 200.772 588.202 200.772H589.448V200.24C589.448 199.428 589.042 198.952 588.09 198.952C587.25 198.952 586.774 199.372 586.424 199.876L585.36 198.924C585.892 198.084 586.746 197.524 588.216 197.524C590.19 197.524 591.24 198.462 591.24 200.128V203.572H591.968V205H590.974C590.204 205 589.728 204.496 589.616 203.74H589.532C589.294 204.678 588.496 205.168 587.404 205.168ZM588.006 203.866C588.804 203.866 589.448 203.502 589.448 202.816V201.85H588.3C587.362 201.85 586.9 202.172 586.9 202.746V202.984C586.9 203.572 587.306 203.866 588.006 203.866ZM594.474 196.628C593.732 196.628 593.424 196.25 593.424 195.732V195.452C593.424 194.934 593.732 194.556 594.474 194.556C595.202 194.556 595.524 194.934 595.524 195.452V195.732C595.524 196.25 595.202 196.628 594.474 196.628ZM593.578 205V197.692H595.37V205H593.578ZM600.366 205H599.4C598.182 205 597.608 204.356 597.608 203.236V194.64H599.4V203.572H600.366V205ZM603.689 205.168C602.205 205.168 601.365 204.314 601.365 203.012C601.365 201.514 602.499 200.772 604.487 200.772H605.733V200.24C605.733 199.428 605.327 198.952 604.375 198.952C603.535 198.952 603.059 199.372 602.709 199.876L601.645 198.924C602.177 198.084 603.031 197.524 604.501 197.524C606.475 197.524 607.525 198.462 607.525 200.128V203.572H608.253V205H607.259C606.489 205 606.013 204.496 605.901 203.74H605.817C605.579 204.678 604.781 205.168 603.689 205.168ZM604.291 203.866C605.089 203.866 605.733 203.502 605.733 202.816V201.85H604.585C603.647 201.85 603.185 202.172 603.185 202.746V202.984C603.185 203.572 603.591 203.866 604.291 203.866ZM609.863 205V194.64H611.655V198.896H611.711C611.977 198.056 612.761 197.524 613.727 197.524C615.575 197.524 616.597 198.896 616.597 201.332C616.597 203.782 615.575 205.168 613.727 205.168C612.761 205.168 611.991 204.608 611.711 203.782H611.655V205H609.863ZM613.153 203.684C614.077 203.684 614.721 203.012 614.721 201.976V200.716C614.721 199.68 614.077 198.994 613.153 198.994C612.299 198.994 611.655 199.456 611.655 200.17V202.494C611.655 203.25 612.299 203.684 613.153 203.684ZM619.314 196.628C618.572 196.628 618.264 196.25 618.264 195.732V195.452C618.264 194.934 618.572 194.556 619.314 194.556C620.042 194.556 620.364 194.934 620.364 195.452V195.732C620.364 196.25 620.042 196.628 619.314 196.628ZM618.418 205V197.692H620.21V205H618.418ZM625.205 205H624.239C623.021 205 622.447 204.356 622.447 203.236V194.64H624.239V203.572H625.205V205ZM627.618 196.628C626.876 196.628 626.568 196.25 626.568 195.732V195.452C626.568 194.934 626.876 194.556 627.618 194.556C628.346 194.556 628.668 194.934 628.668 195.452V195.732C628.668 196.25 628.346 196.628 627.618 196.628ZM626.722 205V197.692H628.514V205H626.722ZM633.033 205C631.801 205 631.143 204.328 631.143 203.138V199.12H630.065V197.692H630.625C631.157 197.692 631.325 197.44 631.325 196.936V195.69H632.935V197.692H634.433V199.12H632.935V203.572H634.321V205H633.033ZM639.354 201.556L640.628 197.692H642.308L639.368 206.302C639.004 207.352 638.486 207.8 637.282 207.8H636.204V206.372H637.52L637.856 205.35L635.238 197.692H637.016L638.29 201.556L638.766 203.404H638.85L639.354 201.556ZM652.592 205H646.6V203.572L650.394 199.106H646.726V197.692H652.494V199.078L648.672 203.572H652.592V205ZM657.053 205.168C654.967 205.168 653.665 203.684 653.665 201.332C653.665 198.994 654.967 197.524 657.053 197.524C659.153 197.524 660.455 198.994 660.455 201.332C660.455 203.684 659.153 205.168 657.053 205.168ZM657.053 203.726C657.991 203.726 658.579 203.124 658.579 202.018V200.66C658.579 199.568 657.991 198.966 657.053 198.966C656.129 198.966 655.541 199.568 655.541 200.66V202.018C655.541 203.124 656.129 203.726 657.053 203.726ZM663.996 205H662.204V197.692H663.996V198.91H664.066C664.36 198.126 664.976 197.524 666.11 197.524C667.608 197.524 668.448 198.56 668.448 200.38V205H666.656V200.562C666.656 199.526 666.306 198.994 665.452 198.994C664.71 198.994 663.996 199.386 663.996 200.17V205ZM673.548 205.168C671.392 205.168 670.104 203.67 670.104 201.332C670.104 199.022 671.35 197.524 673.492 197.524C675.774 197.524 676.824 199.204 676.824 201.206V201.794H671.966V201.976C671.966 203.026 672.568 203.74 673.744 203.74C674.626 203.74 675.158 203.32 675.606 202.746L676.572 203.824C675.97 204.65 674.906 205.168 673.548 205.168ZM673.52 198.868C672.582 198.868 671.966 199.568 671.966 200.576V200.688H674.962V200.562C674.962 199.554 674.444 198.868 673.52 198.868ZM683.695 199.176H684.661C685.781 199.176 686.299 198.658 686.299 197.958V197.86C686.299 197.062 685.739 196.572 684.857 196.572C684.003 196.572 683.331 197.006 682.855 197.748L681.679 196.684C682.337 195.774 683.261 195.06 684.913 195.06C686.887 195.06 688.231 196.04 688.231 197.608C688.231 198.868 687.377 199.624 686.355 199.834V199.918C687.489 200.128 688.399 200.912 688.399 202.298C688.399 204.02 686.957 205.168 684.801 205.168C682.897 205.168 681.945 204.3 681.329 203.348L682.687 202.312C683.121 203.096 683.709 203.656 684.801 203.656C685.879 203.656 686.481 203.096 686.481 202.186V202.088C686.481 201.192 685.823 200.716 684.661 200.716H683.695V199.176Z" fill="black"/>
<rect width="24" height="24" transform="translate(528 188)" fill="white" fill-opacity="0.01" style="mix-blend-mode:multiply"/>
<path d="M549 195.5H545.25V192.5C545.25 192.102 545.091 191.721 544.81 191.44C544.529 191.159 544.148 191 543.75 191H536.25C535.852 191 535.471 191.159 535.19 191.44C534.909 191.721 534.75 192.102 534.75 192.5V195.5H531C530.602 195.5 530.221 195.659 529.94 195.94C529.659 196.221 529.5 196.602 529.5 197V209C529.5 209.398 529.659 209.779 529.94 210.06C530.221 210.341 530.602 210.5 531 210.5H549C549.398 210.5 549.779 210.341 550.06 210.06C550.341 209.779 550.5 209.398 550.5 209V197C550.5 196.602 550.341 196.221 550.06 195.94C549.779 195.659 549.398 195.5 549 195.5ZM531 209V197H534.75V198.5H533.25V200H534.75V201.5H533.25V203H534.75V204.5H533.25V206H534.75V209H531ZM543.75 209H536.25V192.5H543.75V209ZM549 209H545.25V206H546.75V204.5H545.25V203H546.75V201.5H545.25V200H546.75V198.5H545.25V197H549V209Z" fill="black"/>
<path d="M541.5 194H538.5V195.5H541.5V194Z" fill="black"/>
<path d="M541.5 197H538.5V198.5H541.5V197Z" fill="black"/>
<path d="M541.5 200H538.5V201.5H541.5V200Z" fill="black"/>
</g>
<path d="M518 176V176.5H522V176H526V176.5H530V176H534V176.5H538V176H542V176.5H546V176H550V176.5H554V176H558V176.5H562V176H566V176.5H570V176H574V176.5H578V176H582V176.5H586V176H590V176.5H594V176H598V176.5H602V176H606V176.5H610V176H614V176.5H618V176H622V176.5H626V176H630V176.5H634V176H638V176.5H642V176H646V176.5H650V176H654V176.5H658V176H662V176.5H666V176H670V176.5H674V176H678V176.5H682V176H686V176.5H690V176H694V176.5H698V176H702V176.5H706V176H710V176.5H714V176H718V176.5H719.5V178H720V182H719.5V186H720V190H719.5V194H720V198H719.5V202H720V206H719.5V210H720V214H719.5V218H720V222H719.5V226H720V230H719.5V234H720V238H719.5V242H720V246H719.5V250H720V254H719.5V258H720V262H719.5V266H720V270H719.5V274H720V278H719.5V282H720V286H719.5V290H720V294H719.5V298H720V302H719.5V306H720V310H719.5V314H720V318H719.5V322H720V326H719.5V330H720V334H719.5V338H720V342H719.5V346H720V350H719.5V354H720V358H719.5V362H720V366H719.5V367.5H718V368H714V367.5H710V368H706V367.5H702V368H698V367.5H694V368H690V367.5H686V368H682V367.5H678V368H674V367.5H670V368H666V367.5H662V368H658V367.5H654V368H650V367.5H646V368H642V367.5H638V368H634V367.5H630V368H626V367.5H622V368H618V367.5H614V368H610V367.5H606V368H602V367.5H598V368H594V367.5H590V368H586V367.5H582V368H578V367.5H574V368H570V367.5H566V368H562V367.5H558V368H554V367.5H550V368H546V367.5H542V368H538V367.5H534V368H530V367.5H526V368H522V367.5H518V368H514V367.5H512.5V366H512V362H512.5V358H512V354H512.5V350H512V346H512.5V342H512V338H512.5V334H512V330H512.5V326H512V322H512.5V318H512V314H512.5V310H512V306H512.5V302H512V298H512.5V294H512V290H512.5V286H512V282H512.5V278H512V274H512.5V270H512V266H512.5V262H512V258H512.5V254H512V250H512.5V246H512V242H512.5V238H512V234H512.5V230H512V226H512.5V222H512V218H512.5V214H512V210H512.5V206H512V202H512.5V198H512V194H512.5V190H512V186H512.5V182H512V178H512.5V176.5H514V176H518Z" stroke="black" stroke-dasharray="4 4"/>
<rect width="48" height="92" transform="translate(592 248)" fill="white" fill-opacity="0.01" style="mix-blend-mode:multiply"/>
<path d="M600 248H632C636.418 248 640 251.582 640 256V288C640 292.418 636.418 296 632 296H600C595.582 296 592 292.418 592 288V256C592 251.582 595.582 248 600 248Z" fill="#0F62FE"/>
<rect width="24" height="24" transform="translate(604 260)" fill="white" fill-opacity="0.01"/>
<path d="M617.371 276.552L618.716 275.241C619.009 275.618 619.382 275.924 619.809 276.136C620.236 276.348 620.706 276.46 621.182 276.465C622.234 276.465 622.682 276.069 622.682 275.43C622.682 274.913 622.372 274.585 621.579 274.482L620.682 274.361C618.75 274.12 617.681 273.275 617.681 271.636C617.681 269.894 619.044 268.791 621.096 268.791C621.751 268.741 622.41 268.843 623.02 269.088C623.63 269.333 624.175 269.715 624.614 270.205L623.321 271.498C623.046 271.199 622.714 270.958 622.343 270.792C621.972 270.626 621.571 270.538 621.165 270.533C620.216 270.533 619.802 270.912 619.802 271.464C619.802 272.068 620.13 272.343 620.975 272.481L621.889 272.602C623.855 272.878 624.804 273.758 624.804 275.258C624.804 277 623.338 278.207 621.096 278.207C620.389 278.238 619.685 278.105 619.039 277.818C618.392 277.53 617.821 277.097 617.371 276.552Z" fill="white"/>
<path d="M607.935 278V265.963H615.869V267.98H610.212V270.895H615.213V272.913H610.212V275.983H615.869V278H607.935Z" fill="white"/>
<path d="M601.283 318H594.843V308.228H601.283V309.866H596.691V312.232H600.751V313.87H596.691V316.362H601.283V318ZM606.043 318H605.077C603.859 318 603.285 317.356 603.285 316.236V307.64H605.077V316.572H606.043V318ZM609.367 318.168C607.883 318.168 607.043 317.314 607.043 316.012C607.043 314.514 608.177 313.772 610.165 313.772H611.411V313.24C611.411 312.428 611.005 311.952 610.053 311.952C609.213 311.952 608.737 312.372 608.387 312.876L607.323 311.924C607.855 311.084 608.709 310.524 610.179 310.524C612.153 310.524 613.203 311.462 613.203 313.128V316.572H613.931V318H612.937C612.167 318 611.691 317.496 611.579 316.74H611.495C611.257 317.678 610.459 318.168 609.367 318.168ZM609.969 316.866C610.767 316.866 611.411 316.502 611.411 315.816V314.85H610.263C609.325 314.85 608.863 315.172 608.863 315.746V315.984C608.863 316.572 609.269 316.866 609.969 316.866ZM617.935 318.168C616.549 318.168 615.639 317.664 614.911 316.824L616.003 315.76C616.535 316.376 617.179 316.754 618.005 316.754C618.859 316.754 619.223 316.432 619.223 315.914C619.223 315.494 618.971 315.228 618.327 315.144L617.599 315.046C616.031 314.85 615.163 314.164 615.163 312.834C615.163 311.42 616.269 310.524 617.935 310.524C619.363 310.524 620.091 310.944 620.791 311.672L619.741 312.722C619.321 312.274 618.705 311.938 617.991 311.938C617.221 311.938 616.885 312.246 616.885 312.694C616.885 313.184 617.151 313.408 617.837 313.52L618.579 313.618C620.175 313.842 620.945 314.556 620.945 315.774C620.945 317.188 619.755 318.168 617.935 318.168ZM624.86 318C623.628 318 622.97 317.328 622.97 316.138V312.12H621.892V310.692H622.452C622.984 310.692 623.152 310.44 623.152 309.936V308.69H624.762V310.692H626.26V312.12H624.762V316.572H626.148V318H624.86ZM628.87 309.628C628.128 309.628 627.82 309.25 627.82 308.732V308.452C627.82 307.934 628.128 307.556 628.87 307.556C629.598 307.556 629.92 307.934 629.92 308.452V308.732C629.92 309.25 629.598 309.628 628.87 309.628ZM627.974 318V310.692H629.766V318H627.974ZM634.887 318.168C632.731 318.168 631.513 316.684 631.513 314.332C631.513 311.994 632.731 310.524 634.887 310.524C636.357 310.524 637.323 311.224 637.757 312.372L636.287 313.03C636.119 312.414 635.657 311.966 634.887 311.966C633.893 311.966 633.389 312.666 633.389 313.688V315.018C633.389 316.04 633.893 316.726 634.887 316.726C635.741 316.726 636.161 316.236 636.427 315.578L637.799 316.236C637.323 317.524 636.301 318.168 634.887 318.168ZM597.305 336.168C595.919 336.168 595.009 335.664 594.281 334.824L595.373 333.76C595.905 334.376 596.549 334.754 597.375 334.754C598.229 334.754 598.593 334.432 598.593 333.914C598.593 333.494 598.341 333.228 597.697 333.144L596.969 333.046C595.401 332.85 594.533 332.164 594.533 330.834C594.533 329.42 595.639 328.524 597.305 328.524C598.733 328.524 599.461 328.944 600.161 329.672L599.111 330.722C598.691 330.274 598.075 329.938 597.361 329.938C596.591 329.938 596.255 330.246 596.255 330.694C596.255 331.184 596.521 331.408 597.207 331.52L597.949 331.618C599.545 331.842 600.315 332.556 600.315 333.774C600.315 335.188 599.125 336.168 597.305 336.168ZM605.012 336.168C602.856 336.168 601.568 334.67 601.568 332.332C601.568 330.022 602.814 328.524 604.956 328.524C607.238 328.524 608.288 330.204 608.288 332.206V332.794H603.43V332.976C603.43 334.026 604.032 334.74 605.208 334.74C606.09 334.74 606.622 334.32 607.07 333.746L608.036 334.824C607.434 335.65 606.37 336.168 605.012 336.168ZM604.984 329.868C604.046 329.868 603.43 330.568 603.43 331.576V331.688H606.426V331.562C606.426 330.554 605.908 329.868 604.984 329.868ZM611.83 336.168C610.346 336.168 609.506 335.314 609.506 334.012C609.506 332.514 610.64 331.772 612.628 331.772H613.874V331.24C613.874 330.428 613.468 329.952 612.516 329.952C611.676 329.952 611.2 330.372 610.85 330.876L609.786 329.924C610.318 329.084 611.172 328.524 612.642 328.524C614.616 328.524 615.666 329.462 615.666 331.128V334.572H616.394V336H615.4C614.63 336 614.154 335.496 614.042 334.74H613.958C613.72 335.678 612.922 336.168 611.83 336.168ZM612.432 334.866C613.23 334.866 613.874 334.502 613.874 333.816V332.85H612.726C611.788 332.85 611.326 333.172 611.326 333.746V333.984C611.326 334.572 611.732 334.866 612.432 334.866ZM619.797 336H618.005V328.692H619.797V330.204H619.867C620.049 329.434 620.637 328.692 621.799 328.692H622.191V330.386H621.631C620.427 330.386 619.797 330.722 619.797 331.52V336ZM626.476 336.168C624.32 336.168 623.102 334.684 623.102 332.332C623.102 329.994 624.32 328.524 626.476 328.524C627.946 328.524 628.912 329.224 629.346 330.372L627.876 331.03C627.708 330.414 627.246 329.966 626.476 329.966C625.482 329.966 624.978 330.666 624.978 331.688V333.018C624.978 334.04 625.482 334.726 626.476 334.726C627.33 334.726 627.75 334.236 628.016 333.578L629.388 334.236C628.912 335.524 627.89 336.168 626.476 336.168ZM630.93 336V325.64H632.722V329.91H632.792C633.086 329.126 633.702 328.524 634.836 328.524C636.334 328.524 637.174 329.56 637.174 331.38V336H635.382V331.562C635.382 330.526 635.032 329.994 634.178 329.994C633.436 329.994 632.722 330.386 632.722 331.17V336H630.93Z" fill="black"/>
<rect x="768.5" y="176.5" width="191" height="527" stroke="#0F62FE"/>
<g clip-path="url(#clip6_571_9838)">
<path d="M825.148 205V195.228H829.67C831.28 195.228 832.26 196.222 832.26 197.734C832.26 199.218 831.406 199.778 830.51 199.834V199.918C831.364 199.932 832.624 200.534 832.624 202.2C832.624 203.768 831.546 205 830.104 205H825.148ZM826.996 200.814V203.432H829.572C830.272 203.432 830.692 203.054 830.692 202.368V201.892C830.692 201.206 830.272 200.814 829.572 200.814H826.996ZM826.996 196.796V199.302H829.278C829.95 199.302 830.342 198.91 830.342 198.266V197.832C830.342 197.174 829.95 196.796 829.278 196.796H826.996ZM836.285 205.168C834.801 205.168 833.961 204.314 833.961 203.012C833.961 201.514 835.095 200.772 837.083 200.772H838.329V200.24C838.329 199.428 837.923 198.952 836.971 198.952C836.131 198.952 835.655 199.372 835.305 199.876L834.241 198.924C834.773 198.084 835.627 197.524 837.097 197.524C839.071 197.524 840.121 198.462 840.121 200.128V203.572H840.849V205H839.855C839.085 205 838.609 204.496 838.497 203.74H838.413C838.175 204.678 837.377 205.168 836.285 205.168ZM836.887 203.866C837.685 203.866 838.329 203.502 838.329 202.816V201.85H837.181C836.243 201.85 835.781 202.172 835.781 202.746V202.984C835.781 203.572 836.187 203.866 836.887 203.866ZM845.344 205.168C843.188 205.168 841.97 203.684 841.97 201.332C841.97 198.994 843.188 197.524 845.344 197.524C846.814 197.524 847.78 198.224 848.214 199.372L846.744 200.03C846.576 199.414 846.114 198.966 845.344 198.966C844.35 198.966 843.846 199.666 843.846 200.688V202.018C843.846 203.04 844.35 203.726 845.344 203.726C846.198 203.726 846.618 203.236 846.884 202.578L848.256 203.236C847.78 204.524 846.758 205.168 845.344 205.168ZM849.797 205V194.64H851.589V200.884H851.659L852.625 199.568L854.263 197.692H856.293L853.773 200.52L856.559 205H854.431L852.555 201.724L851.589 202.774V205H849.797ZM862.05 205V203.782H861.98C861.728 204.51 861.14 205.168 859.936 205.168C858.438 205.168 857.598 204.132 857.598 202.312V197.692H859.39V202.13C859.39 203.138 859.768 203.684 860.622 203.684C861.336 203.684 862.05 203.306 862.05 202.522V197.692H863.842V205H862.05ZM866.072 207.8V197.692H867.864V198.896H867.92C868.186 198.056 868.97 197.524 869.936 197.524C871.784 197.524 872.806 198.896 872.806 201.332C872.806 203.782 871.784 205.168 869.936 205.168C868.97 205.168 868.2 204.608 867.92 203.782H867.864V207.8H866.072ZM869.362 203.684C870.286 203.684 870.93 203.012 870.93 201.976V200.716C870.93 199.68 870.286 198.994 869.362 198.994C868.508 198.994 867.864 199.456 867.864 200.17V202.494C867.864 203.25 868.508 203.684 869.362 203.684ZM877.021 205.168C875.635 205.168 874.725 204.664 873.997 203.824L875.089 202.76C875.621 203.376 876.265 203.754 877.091 203.754C877.945 203.754 878.309 203.432 878.309 202.914C878.309 202.494 878.057 202.228 877.413 202.144L876.685 202.046C875.117 201.85 874.249 201.164 874.249 199.834C874.249 198.42 875.355 197.524 877.021 197.524C878.449 197.524 879.177 197.944 879.877 198.672L878.827 199.722C878.407 199.274 877.791 198.938 877.077 198.938C876.307 198.938 875.971 199.246 875.971 199.694C875.971 200.184 876.237 200.408 876.923 200.52L877.665 200.618C879.261 200.842 880.031 201.556 880.031 202.774C880.031 204.188 878.841 205.168 877.021 205.168Z" fill="black"/>
<g clip-path="url(#clip7_571_9838)">
<rect width="24" height="24" transform="translate(784 188)" fill="white" fill-opacity="0.01" style="mix-blend-mode:multiply"/>
<path d="M803.366 195.593C803.039 193.879 802.124 192.333 800.78 191.221C799.435 190.108 797.745 189.5 796 189.5C794.255 189.5 792.565 190.108 791.22 191.221C789.876 192.333 788.961 193.879 788.634 195.593C787.25 195.84 786.009 196.597 785.156 197.713C784.302 198.83 783.898 200.225 784.022 201.625C784.146 203.025 784.791 204.328 785.828 205.277C786.865 206.225 788.22 206.751 789.625 206.75H790V205.25H789.625C788.556 205.251 787.528 204.836 786.759 204.093C785.99 203.351 785.539 202.338 785.503 201.269C785.466 200.201 785.846 199.16 786.562 198.366C787.279 197.572 788.276 197.088 789.342 197.016L789.97 196.973L790.037 196.348C790.198 194.878 790.895 193.52 791.995 192.533C793.096 191.546 794.522 191 796 191C797.478 191 798.904 191.546 800.005 192.533C801.105 193.52 801.803 194.878 801.963 196.348L802.031 196.973L802.658 197.016C803.725 197.088 804.721 197.572 805.438 198.366C806.154 199.16 806.534 200.201 806.497 201.27C806.461 202.338 806.01 203.351 805.241 204.093C804.472 204.836 803.444 205.251 802.375 205.25H802V206.75H802.375C803.78 206.751 805.135 206.225 806.172 205.277C807.209 204.328 807.854 203.025 807.978 201.625C808.102 200.226 807.698 198.83 806.844 197.713C805.991 196.597 804.75 195.84 803.366 195.593Z" fill="black"/>
<path d="M801.25 204.5V203H799.674C799.577 202.531 799.391 202.084 799.125 201.685L800.243 200.568L799.182 199.507L798.065 200.625C797.666 200.359 797.219 200.173 796.75 200.076V198.5H795.25V200.076C794.781 200.173 794.334 200.359 793.935 200.625L792.818 199.507L791.757 200.568L792.875 201.685C792.609 202.084 792.423 202.531 792.326 203H790.75V204.5H792.326C792.423 204.97 792.609 205.416 792.875 205.815L791.757 206.932L792.818 207.993L793.935 206.875C794.334 207.141 794.78 207.328 795.25 207.424V209H796.75V207.424C797.219 207.328 797.666 207.141 798.065 206.875L799.182 207.993L800.243 206.932L799.125 205.815C799.391 205.416 799.577 204.97 799.674 204.5H801.25ZM796 206C795.555 206 795.12 205.868 794.75 205.621C794.38 205.374 794.092 205.022 793.921 204.611C793.751 204.2 793.706 203.748 793.793 203.311C793.88 202.875 794.094 202.474 794.409 202.159C794.724 201.844 795.125 201.63 795.561 201.543C795.997 201.457 796.45 201.501 796.861 201.671C797.272 201.842 797.624 202.13 797.871 202.5C798.118 202.87 798.25 203.305 798.25 203.75C798.249 204.347 798.012 204.919 797.59 205.34C797.168 205.762 796.597 206 796 206Z" fill="black"/>
</g>
<line x1="770" y1="176" x2="770" y2="224" stroke="#0F62FE" stroke-width="4"/>
</g>
<path d="M848 528H880C884.418 528 888 531.582 888 536V568C888 572.418 884.418 576 880 576H848C843.582 576 840 572.418 840 568V536C840 531.582 843.582 528 848 528Z" fill="#0F62FE"/>
<rect width="24" height="24" transform="translate(852 540)" fill="white" fill-opacity="0.01"/>
<path d="M873 555H871.5V556.5H873V561H855V556.5H862.5V555H855C854.602 555 854.221 555.159 853.94 555.44C853.659 555.721 853.5 556.102 853.5 556.5V561C853.5 561.398 853.659 561.779 853.94 562.06C854.221 562.341 854.602 562.5 855 562.5H873C873.398 562.5 873.779 562.341 874.06 562.06C874.341 561.779 874.5 561.398 874.5 561V556.5C874.5 556.102 874.341 555.721 874.06 555.44C873.779 555.159 873.398 555 873 555Z" fill="#F4F4F4"/>
<path d="M857.25 559.5C857.664 559.5 858 559.164 858 558.75C858 558.336 857.664 558 857.25 558C856.836 558 856.5 558.336 856.5 558.75C856.5 559.164 856.836 559.5 857.25 559.5Z" fill="#F4F4F4"/>
<path d="M874.5 546H868.5V550.5H864V556.5H870V552H874.5V546ZM868.5 555H865.5V552H868.5V555ZM873 550.5H870V547.5H873V550.5Z" fill="#F4F4F4"/>
<path d="M865.5 547.5H859.5V541.5H865.5V547.5ZM861 546H864V543H861V546Z" fill="#F4F4F4"/>
<path d="M847.278 598.168C844.716 598.168 843.022 596.418 843.022 593.114C843.022 589.81 844.716 588.06 847.278 588.06C849.854 588.06 851.534 589.81 851.534 593.114C851.534 596.418 849.854 598.168 847.278 598.168ZM847.278 596.53C848.678 596.53 849.574 595.536 849.574 593.87V592.358C849.574 590.692 848.678 589.698 847.278 589.698C845.878 589.698 844.982 590.692 844.982 592.358V593.87C844.982 595.536 845.878 596.53 847.278 596.53ZM853.457 598V587.64H855.249V591.896H855.305C855.571 591.056 856.355 590.524 857.321 590.524C859.169 590.524 860.191 591.896 860.191 594.332C860.191 596.782 859.169 598.168 857.321 598.168C856.355 598.168 855.585 597.608 855.305 596.782H855.249V598H853.457ZM856.747 596.684C857.671 596.684 858.315 596.012 858.315 594.976V593.716C858.315 592.68 857.671 591.994 856.747 591.994C855.893 591.994 855.249 592.456 855.249 593.17V595.494C855.249 596.25 855.893 596.684 856.747 596.684ZM862.012 599.372V590.692H863.804V598.882C863.804 600.1 863.216 600.8 861.872 600.8H860.892V599.372H862.012ZM862.908 589.628C862.166 589.628 861.858 589.25 861.858 588.732V588.452C861.858 587.934 862.166 587.556 862.908 587.556C863.636 587.556 863.958 587.934 863.958 588.452V588.732C863.958 589.25 863.636 589.628 862.908 589.628ZM868.995 598.168C866.839 598.168 865.551 596.67 865.551 594.332C865.551 592.022 866.797 590.524 868.939 590.524C871.221 590.524 872.271 592.204 872.271 594.206V594.794H867.413V594.976C867.413 596.026 868.015 596.74 869.191 596.74C870.073 596.74 870.605 596.32 871.053 595.746L872.019 596.824C871.417 597.65 870.353 598.168 868.995 598.168ZM868.967 591.868C868.029 591.868 867.413 592.568 867.413 593.576V593.688H870.409V593.562C870.409 592.554 869.891 591.868 868.967 591.868ZM876.892 598.168C874.736 598.168 873.518 596.684 873.518 594.332C873.518 591.994 874.736 590.524 876.892 590.524C878.362 590.524 879.328 591.224 879.762 592.372L878.292 593.03C878.124 592.414 877.662 591.966 876.892 591.966C875.898 591.966 875.394 592.666 875.394 593.688V595.018C875.394 596.04 875.898 596.726 876.892 596.726C877.746 596.726 878.166 596.236 878.432 595.578L879.804 596.236C879.328 597.524 878.306 598.168 876.892 598.168ZM883.627 598C882.395 598 881.737 597.328 881.737 596.138V592.12H880.659V590.692H881.219C881.751 590.692 881.919 590.44 881.919 589.936V588.69H883.529V590.692H885.027V592.12H883.529V596.572H884.915V598H883.627ZM842.453 616V605.64H844.245V609.896H844.301C844.567 609.056 845.351 608.524 846.317 608.524C848.165 608.524 849.187 609.896 849.187 612.332C849.187 614.782 848.165 616.168 846.317 616.168C845.351 616.168 844.581 615.608 844.301 614.782H844.245V616H842.453ZM845.743 614.684C846.667 614.684 847.311 614.012 847.311 612.976V611.716C847.311 610.68 846.667 609.994 845.743 609.994C844.889 609.994 844.245 610.456 844.245 611.17V613.494C844.245 614.25 844.889 614.684 845.743 614.684ZM855.376 616V614.782H855.306C855.054 615.51 854.466 616.168 853.262 616.168C851.764 616.168 850.924 615.132 850.924 613.312V608.692H852.716V613.13C852.716 614.138 853.094 614.684 853.948 614.684C854.662 614.684 855.376 614.306 855.376 613.522V608.692H857.168V616H855.376ZM862.282 616.168C860.126 616.168 858.908 614.684 858.908 612.332C858.908 609.994 860.126 608.524 862.282 608.524C863.752 608.524 864.718 609.224 865.152 610.372L863.682 611.03C863.514 610.414 863.052 609.966 862.282 609.966C861.288 609.966 860.784 610.666 860.784 611.688V613.018C860.784 614.04 861.288 614.726 862.282 614.726C863.136 614.726 863.556 614.236 863.822 613.578L865.194 614.236C864.718 615.524 863.696 616.168 862.282 616.168ZM866.736 616V605.64H868.528V611.884H868.598L869.564 610.568L871.202 608.692H873.232L870.712 611.52L873.498 616H871.37L869.494 612.724L868.528 613.774V616H866.736ZM877.37 616.168C875.214 616.168 873.926 614.67 873.926 612.332C873.926 610.022 875.172 608.524 877.314 608.524C879.596 608.524 880.646 610.204 880.646 612.206V612.794H875.788V612.976C875.788 614.026 876.39 614.74 877.566 614.74C878.448 614.74 878.98 614.32 879.428 613.746L880.394 614.824C879.792 615.65 878.728 616.168 877.37 616.168ZM877.342 609.868C876.404 609.868 875.788 610.568 875.788 611.576V611.688H878.784V611.562C878.784 610.554 878.266 609.868 877.342 609.868ZM884.664 616C883.432 616 882.774 615.328 882.774 614.138V610.12H881.696V608.692H882.256C882.788 608.692 882.956 608.44 882.956 607.936V606.69H884.566V608.692H886.064V610.12H884.566V614.572H885.952V616H884.664Z" fill="black"/>
<rect width="170.263" height="32" transform="translate(920 264) rotate(90)" fill="white" fill-opacity="0.01" style="mix-blend-mode:multiply"/>
<path d="M920 434.263L920 272C920 267.582 916.418 264 912 264L888 264" stroke="black" stroke-dasharray="4 4"/>
<rect width="118.641" height="32" transform="matrix(1.10881e-08 -1 -1 -1.28248e-08 920 551.999)" fill="white" fill-opacity="0.01" style="mix-blend-mode:multiply"/>
<path d="M920 433.358L920 543.999C920 548.417 916.418 551.999 912 551.999L888 551.999" stroke="black" stroke-dasharray="4 4"/>
<path d="M848 240H880C884.418 240 888 243.582 888 248V280C888 284.418 884.418 288 880 288H848C843.582 288 840 284.418 840 280V248C840 243.582 843.582 240 848 240Z" fill="#0F62FE"/>
<rect width="24" height="24" transform="translate(852 252)" fill="white" fill-opacity="0.01"/>
<path d="M873 267H871.5V268.5H873V273H855V268.5H862.5V267H855C854.602 267 854.221 267.159 853.94 267.44C853.659 267.721 853.5 268.102 853.5 268.5V273C853.5 273.398 853.659 273.779 853.94 274.06C854.221 274.341 854.602 274.5 855 274.5H873C873.398 274.5 873.779 274.341 874.06 274.06C874.341 273.779 874.5 273.398 874.5 273V268.5C874.5 268.102 874.341 267.721 874.06 267.44C873.779 267.159 873.398 267 873 267Z" fill="#F4F4F4"/>
<path d="M857.25 271.5C857.664 271.5 858 271.164 858 270.75C858 270.336 857.664 270 857.25 270C856.836 270 856.5 270.336 856.5 270.75C856.5 271.164 856.836 271.5 857.25 271.5Z" fill="#F4F4F4"/>
<path d="M874.5 258H868.5V262.5H864V268.5H870V264H874.5V258ZM868.5 267H865.5V264H868.5V267ZM873 262.5H870V259.5H873V262.5Z" fill="#F4F4F4"/>
<path d="M865.5 259.5H859.5V253.5H865.5V259.5ZM861 258H864V255H861V258Z" fill="#F4F4F4"/>
<path d="M847.278 310.168C844.716 310.168 843.022 308.418 843.022 305.114C843.022 301.81 844.716 300.06 847.278 300.06C849.854 300.06 851.534 301.81 851.534 305.114C851.534 308.418 849.854 310.168 847.278 310.168ZM847.278 308.53C848.678 308.53 849.574 307.536 849.574 305.87V304.358C849.574 302.692 848.678 301.698 847.278 301.698C845.878 301.698 844.982 302.692 844.982 304.358V305.87C844.982 307.536 845.878 308.53 847.278 308.53ZM853.457 310V299.64H855.249V303.896H855.305C855.571 303.056 856.355 302.524 857.321 302.524C859.169 302.524 860.191 303.896 860.191 306.332C860.191 308.782 859.169 310.168 857.321 310.168C856.355 310.168 855.585 309.608 855.305 308.782H855.249V310H853.457ZM856.747 308.684C857.671 308.684 858.315 308.012 858.315 306.976V305.716C858.315 304.68 857.671 303.994 856.747 303.994C855.893 303.994 855.249 304.456 855.249 305.17V307.494C855.249 308.25 855.893 308.684 856.747 308.684ZM862.012 311.372V302.692H863.804V310.882C863.804 312.1 863.216 312.8 861.872 312.8H860.892V311.372H862.012ZM862.908 301.628C862.166 301.628 861.858 301.25 861.858 300.732V300.452C861.858 299.934 862.166 299.556 862.908 299.556C863.636 299.556 863.958 299.934 863.958 300.452V300.732C863.958 301.25 863.636 301.628 862.908 301.628ZM868.995 310.168C866.839 310.168 865.551 308.67 865.551 306.332C865.551 304.022 866.797 302.524 868.939 302.524C871.221 302.524 872.271 304.204 872.271 306.206V306.794H867.413V306.976C867.413 308.026 868.015 308.74 869.191 308.74C870.073 308.74 870.605 308.32 871.053 307.746L872.019 308.824C871.417 309.65 870.353 310.168 868.995 310.168ZM868.967 303.868C868.029 303.868 867.413 304.568 867.413 305.576V305.688H870.409V305.562C870.409 304.554 869.891 303.868 868.967 303.868ZM876.892 310.168C874.736 310.168 873.518 308.684 873.518 306.332C873.518 303.994 874.736 302.524 876.892 302.524C878.362 302.524 879.328 303.224 879.762 304.372L878.292 305.03C878.124 304.414 877.662 303.966 876.892 303.966C875.898 303.966 875.394 304.666 875.394 305.688V307.018C875.394 308.04 875.898 308.726 876.892 308.726C877.746 308.726 878.166 308.236 878.432 307.578L879.804 308.236C879.328 309.524 878.306 310.168 876.892 310.168ZM883.627 310C882.395 310 881.737 309.328 881.737 308.138V304.12H880.659V302.692H881.219C881.751 302.692 881.919 302.44 881.919 301.936V300.69H883.529V302.692H885.027V304.12H883.529V308.572H884.915V310H883.627ZM842.453 328V317.64H844.245V321.896H844.301C844.567 321.056 845.351 320.524 846.317 320.524C848.165 320.524 849.187 321.896 849.187 324.332C849.187 326.782 848.165 328.168 846.317 328.168C845.351 328.168 844.581 327.608 844.301 326.782H844.245V328H842.453ZM845.743 326.684C846.667 326.684 847.311 326.012 847.311 324.976V323.716C847.311 322.68 846.667 321.994 845.743 321.994C844.889 321.994 844.245 322.456 844.245 323.17V325.494C844.245 326.25 844.889 326.684 845.743 326.684ZM855.376 328V326.782H855.306C855.054 327.51 854.466 328.168 853.262 328.168C851.764 328.168 850.924 327.132 850.924 325.312V320.692H852.716V325.13C852.716 326.138 853.094 326.684 853.948 326.684C854.662 326.684 855.376 326.306 855.376 325.522V320.692H857.168V328H855.376ZM862.282 328.168C860.126 328.168 858.908 326.684 858.908 324.332C858.908 321.994 860.126 320.524 862.282 320.524C863.752 320.524 864.718 321.224 865.152 322.372L863.682 323.03C863.514 322.414 863.052 321.966 862.282 321.966C861.288 321.966 860.784 322.666 860.784 323.688V325.018C860.784 326.04 861.288 326.726 862.282 326.726C863.136 326.726 863.556 326.236 863.822 325.578L865.194 326.236C864.718 327.524 863.696 328.168 862.282 328.168ZM866.736 328V317.64H868.528V323.884H868.598L869.564 322.568L871.202 320.692H873.232L870.712 323.52L873.498 328H871.37L869.494 324.724L868.528 325.774V328H866.736ZM877.37 328.168C875.214 328.168 873.926 326.67 873.926 324.332C873.926 322.022 875.172 320.524 877.314 320.524C879.596 320.524 880.646 322.204 880.646 324.206V324.794H875.788V324.976C875.788 326.026 876.39 326.74 877.566 326.74C878.448 326.74 878.98 326.32 879.428 325.746L880.394 326.824C879.792 327.65 878.728 328.168 877.37 328.168ZM877.342 321.868C876.404 321.868 875.788 322.568 875.788 323.576V323.688H878.784V323.562C878.784 322.554 878.266 321.868 877.342 321.868ZM884.664 328C883.432 328 882.774 327.328 882.774 326.138V322.12H881.696V320.692H882.256C882.788 320.692 882.956 320.44 882.956 319.936V318.69H884.566V320.692H886.064V322.12H884.566V326.572H885.952V328H884.664Z" fill="black"/>
<defs>
<clipPath id="clip0_571_9838">
<rect width="1056" height="48" fill="white"/>
</clipPath>
<clipPath id="clip1_571_9838">
<rect width="960" height="48" fill="white" transform="translate(48 96)"/>
</clipPath>
<clipPath id="clip2_571_9838">
<rect width="960" height="48" fill="white" transform="translate(48 432)"/>
</clipPath>
<clipPath id="clip3_571_9838">
<rect width="208" height="48" fill="white" transform="translate(288 176)"/>
</clipPath>
<clipPath id="clip4_571_9838">
<rect width="208" height="48" fill="white" transform="translate(64 176)"/>
</clipPath>
<clipPath id="clip5_571_9838">
<rect width="208" height="48" fill="white" transform="translate(512 176)"/>
</clipPath>
<clipPath id="clip6_571_9838">
<rect width="192" height="48" fill="white" transform="translate(768 176)"/>
</clipPath>
<clipPath id="clip7_571_9838">
<rect width="24" height="24" fill="white" transform="translate(784 188)"/>
</clipPath>
</defs>
</svg>
